<?xml version="1.0" encoding="UTF-8"?>
<svg width="159px" height="188px" viewBox="0 0 159 188" version="1.1" xmlns="http://www.w3.org/2000/svg" xmlns:xlink="http://www.w3.org/1999/xlink">
    <title>celery@2x</title>
    <g id="Page-1" stroke="none" stroke-width="1" fill="none" fill-rule="evenodd">
        <g id="Allergens" transform="translate(-939.000000, -426.000000)">
            <g id="celery" transform="translate(979.589000, 440.348000)">
                <path d="M71.3200001,27.892 C71.5620001,27.728 71.7960001,27.545 72.0110001,27.326 C73.8140001,25.523 73.8140001,22.601 72.0110001,20.799 C70.9640001,19.752 69.5420001,19.332 68.1770001,19.5 C68.3470001,18.137 67.9250001,16.713 66.8800001,15.668 C65.0760001,13.865 62.1560001,13.861 60.3530001,15.668 C60.1360001,15.883 59.9510001,16.115 59.7890001,16.359 C59.7650001,16.338 59.7510001,16.308 59.7320001,16.287 C58.4590001,15.016 56.6300001,14.658 55.0270001,15.185 C55.0520001,14.949 55.0910001,14.717 55.0910001,14.475 C55.0910001,10.824 52.1340001,7.865 48.4840001,7.865 C48.4390001,7.865 48.4000001,7.879 48.3570001,7.879 C48.4370001,7.467 48.4840001,7.043 48.4840001,6.607 C48.4840001,2.959 45.5250001,2.27373675e-13 41.8760001,2.27373675e-13 C39.7570001,2.27373675e-13 37.8940001,1.016 36.6810001,2.566 C35.4720001,1.016 33.6070001,2.27373675e-13 31.4900001,2.27373675e-13 C27.8390001,2.27373675e-13 24.8800001,2.959 24.8800001,6.607 C24.8800001,7.043 24.9290001,7.467 25.0070001,7.879 C24.9660001,7.879 24.9250001,7.865 24.8800001,7.865 C21.2300001,7.865 18.2730001,10.824 18.2730001,14.475 C18.2730001,14.719 18.3120001,14.949 18.3370001,15.185 C16.7360001,14.658 14.9060001,15.014 13.6340001,16.287 C13.6110001,16.308 13.5990001,16.338 13.5760001,16.359 C13.4120001,16.115 13.2280001,15.883 13.0110001,15.668 C11.2080001,13.861 8.2870001,13.865 6.4840001,15.668 C5.4370001,16.713 5.0170001,18.137 5.1870001,19.5 C3.8220001,19.332 2.4000001,19.752 1.3530001,20.799 C-0.449999896,22.601 -0.451999896,25.523 1.3530001,27.326 C1.5660001,27.545 1.8020001,27.728 2.0440001,27.892 C2.0230001,27.91 1.9960001,27.926 1.9720001,27.945 C0.169000104,29.752 0.169000104,32.674 1.9740001,34.478 C3.6340001,36.139 6.2360001,36.248 8.0460001,34.851 C8.2300001,35.682 8.6340001,36.473 9.2790001,37.119 C11.0820001,38.92 14.0050001,38.92 15.8080001,37.119 C17.1090001,38.418 18.9860001,38.766 20.6110001,38.191 C20.6560001,39.09 21.1440001,39.943 21.9880001,40.41 C22.0540001,40.447 28.7360001,44.266 28.7360001,55.183 L28.7360001,83.975 C28.7360001,85.457 30.0190001,89.127 36.6810001,89.127 C42.7850001,89.127 44.6280001,85.457 44.6280001,83.975 L44.6280001,55.183 C44.6280001,44.467 51.0760001,40.584 51.3960001,40.398 C52.2280001,39.93 52.7080001,39.082 52.7550001,38.191 C54.3780001,38.766 56.2550001,38.418 57.5540001,37.119 C59.3570001,38.92 62.2810001,38.92 64.0840001,37.119 C64.7300001,36.473 65.1320001,35.682 65.3160001,34.851 C67.1280001,36.248 69.7300001,36.139 71.3880001,34.478 C73.1910001,32.674 73.1950001,29.752 71.3900001,27.945 C71.3690001,27.926 71.3410001,27.91 71.3200001,27.892 Z M24.5870001,35.703 C24.2940001,35.541 23.9840001,35.449 23.6710001,35.402 C24.5110001,33.682 24.2360001,31.553 22.8040001,30.125 C23.4080001,29.521 23.7880001,28.791 23.9880001,28.023 C25.1560001,29.898 27.2280001,31.152 29.6030001,31.152 C29.6030001,34.023 31.4350001,36.461 33.9940001,37.371 L33.9940001,52.531 C32.9450001,40.471 24.9510001,35.904 24.5870001,35.703 Z M48.7770001,35.703 C48.4130001,35.904 40.4210001,40.469 39.3710001,52.527 L39.3710001,37.371 C41.9290001,36.461 43.7630001,34.023 43.7630001,31.152 C46.1340001,31.152 48.2080001,29.9 49.3740001,28.023 C49.5760001,28.791 49.9570001,29.523 50.5580001,30.125 C49.1260001,31.555 48.8530001,33.682 49.6930001,35.402 C49.3800001,35.449 49.0700001,35.541 48.7770001,35.703 L48.7770001,35.703 Z" id="Fill-309" fill="#2B2D2F"/>
                <path d="M34.2200001,85.334 C33.3330001,85.334 32.6110001,84.216 32.6110001,82.842 C32.6110001,81.028 33.3800001,59.581 34.2200001,56.353 C35.0620001,59.581 35.8300001,81.028 35.8300001,82.842 C35.8300001,84.192 35.0930001,85.334 34.2200001,85.334" id="Fill-357" fill="#FFFFFE"/>
                <path d="M15.2200001,143.034 C14.5380001,143.375 13.1710001,143.738 11.4210001,143.738 C7.3650001,143.738 4.3120001,141.155 4.3120001,136.438 C4.3120001,131.933 7.3650001,128.88 11.8270001,128.88 C13.6200001,128.88 14.7510001,129.265 15.2420001,129.521 L14.7940001,131.037 C14.0890001,130.695 13.0850001,130.439 11.8900001,130.439 C8.5170001,130.439 6.2770001,132.595 6.2770001,136.373 C6.2770001,139.896 8.3040001,142.159 11.8050001,142.159 C12.9370001,142.159 14.0890001,141.923 14.8360001,141.561 L15.2200001,143.034" id="Fill-415" fill="#2B2D2F"/>
                <polyline id="Fill-416" fill="#2B2D2F" points="24.9990001 136.757 19.4080001 136.757 19.4080001 141.945 25.6400001 141.945 25.6400001 143.503 17.5500001 143.503 17.5500001 129.116 25.3200001 129.116 25.3200001 130.674 19.4080001 130.674 19.4080001 135.221 24.9990001 135.221 24.9990001 136.757"/>
                <polyline id="Fill-417" fill="#2B2D2F" points="28.0550001 129.116 29.9120001 129.116 29.9120001 141.945 36.0600001 141.945 36.0600001 143.503 28.0550001 143.503 28.0550001 129.116"/>
                <polyline id="Fill-418" fill="#2B2D2F" points="45.5820001 136.757 39.9900001 136.757 39.9900001 141.945 46.2230001 141.945 46.2230001 143.503 38.1320001 143.503 38.1320001 129.116 45.9030001 129.116 45.9030001 130.674 39.9900001 130.674 39.9900001 135.221 45.5820001 135.221 45.5820001 136.757"/>
                <path d="M48.6380001,129.308 C49.5770001,129.116 50.9210001,129.008 52.2030001,129.008 C54.1870001,129.008 55.4680001,129.372 56.3650001,130.183 C57.0910001,130.824 57.4970001,131.805 57.4970001,132.915 C57.4970001,134.815 56.3010001,136.075 54.7860001,136.587 L54.7860001,136.651 C55.8960001,137.036 56.5570001,138.06 56.8990001,139.554 C57.3690001,141.561 57.7100001,142.949 58.0090001,143.503 L56.0870001,143.503 C55.8530001,143.077 55.5330001,141.86 55.1260001,140.067 C54.7010001,138.081 53.9310001,137.334 52.2460001,137.27 L50.4950001,137.27 L50.4950001,143.503 L48.6380001,143.503 L48.6380001,129.308 Z M50.4950001,135.861 L52.3940001,135.861 C54.3800001,135.861 55.6390001,134.773 55.6390001,133.128 C55.6390001,131.272 54.2940001,130.46 52.3300001,130.439 C51.4340001,130.439 50.7930001,130.525 50.4950001,130.61 L50.4950001,135.861 L50.4950001,135.861 Z" id="Fill-419" fill="#2B2D2F"/>
                <path d="M63.0920001,143.503 L63.0920001,137.398 L58.5450001,129.116 L60.6600001,129.116 L62.6870001,133.086 C63.2420001,134.174 63.6690001,135.05 64.1170001,136.053 L64.1600001,136.053 C64.5660001,135.114 65.0560001,134.174 65.6110001,133.086 L67.6820001,129.116 L69.7950001,129.116 L64.9710001,137.376 L64.9710001,143.503 L63.0920001,143.503" id="Fill-420" fill="#2B2D2F"/>
            </g>
            <g id="Group" transform="translate(770.145000, 183.150189)"/>
        </g>
    </g>
</svg>