<?xml version="1.0" encoding="UTF-8"?>
<svg width="159px" height="188px" viewBox="0 0 159 188" version="1.1" xmlns="http://www.w3.org/2000/svg" xmlns:xlink="http://www.w3.org/1999/xlink">
    <title>gluten@2x</title>
    <g id="Page-1" stroke="none" stroke-width="1" fill="none" fill-rule="evenodd">
        <g id="Allergens" transform="translate(-1106.000000, -183.000000)">
            <g id="gluten" transform="translate(1150.238500, 194.000000)">
                <path d="M32.849,94.408 C32.849,95.678 33.935,96.705 35.273,96.705 C36.611,96.705 37.697,95.678 37.697,94.408 L37.697,84.58 C37.697,83.313 36.611,82.285 35.273,82.285 C33.935,82.285 32.849,83.313 32.849,84.58 L32.849,94.408" id="Fill-310" fill="#1A1919"></path>
                <path d="M35.277,29.119 C50.367,10.561 35.277,-1.72306613e-13 35.277,-1.72306613e-13 C35.277,-1.72306613e-13 20.174,10.561 35.277,29.119" id="Fill-311" fill="#1A1919"></path>
                <path d="M15.426,41.815 C15.426,41.815 12.635,59.401 37.158,62.403 C33.996,39.18 15.426,41.815 15.426,41.815" id="Fill-312" fill="#1A1919"></path>
                <path d="M37.158,50.844 C38.652,53.481 39.849,56.785 40.553,60.918 C57.326,55.731 55.121,41.815 55.121,41.815 C55.121,41.815 43.597,40.18 37.158,50.844" id="Fill-313" fill="#1A1919"></path>
                <path d="M37.158,68.115 C38.652,70.748 39.849,74.051 40.553,78.18 C57.326,72.998 55.121,59.076 55.121,59.076 C55.121,59.076 47.297,57.967 40.943,63.549 L40.967,63.77 L40.723,63.746 C39.437,64.899 38.226,66.342 37.158,68.115" id="Fill-314" fill="#1A1919"></path>
                <path d="M55.121,24.043 C55.121,24.043 43.597,22.405 37.158,33.069 C38.652,35.705 39.849,39.012 40.553,43.145 C57.326,37.951 55.121,24.043 55.121,24.043" id="Fill-315" fill="#1A1919"></path>
                <path d="M15.426,24.043 C15.426,24.043 12.635,41.627 37.158,44.627 C33.996,21.401 15.426,24.043 15.426,24.043" id="Fill-316" fill="#1A1919"></path>
                <path d="M15.426,59.076 C15.426,59.076 12.635,76.664 37.158,79.672 C33.996,56.438 15.426,59.076 15.426,59.076" id="Fill-317" fill="#1A1919"></path>
                <path d="M31.092,16.198 C30.98,15.823 30.932,15.491 30.894,15.179 C30.82,14.591 30.812,13.937 30.869,13.176 C30.967,11.876 31.252,10.489 31.713,9.052 C32.072,7.934 32.553,6.744 33.226,5.31 L33.369,5.001 C33.547,4.613 33.73,4.211 33.97,3.894 C34.17,3.628 34.496,3.477 34.867,3.477 C35.031,3.477 35.197,3.508 35.345,3.567 C35.836,3.759 36.172,4.216 36.164,4.679 C36.156,5.006 35.926,5.338 35.703,5.659 C35.642,5.747 35.584,5.833 35.529,5.917 C34.771,7.093 34.125,8.208 33.551,9.325 C32.886,10.614 32.338,11.922 31.918,13.211 C31.683,13.93 31.51,14.562 31.383,15.142 C31.336,15.354 31.283,15.567 31.23,15.78 C31.23,15.78 31.129,16.2 31.113,16.264 C31.105,16.243 31.099,16.221 31.092,16.198" id="Fill-348" fill="#FFFFFE"></path>
                <path d="M25.783,74.185 C25.457,74.048 25.199,73.904 24.898,73.721 C24.41,73.42 23.908,73.042 23.365,72.568 C22.383,71.703 21.437,70.636 20.555,69.397 C19.808,68.344 19.111,67.196 18.484,65.984 C18.205,65.448 17.931,64.909 17.691,64.355 C17.51,63.924 17.613,63.465 17.965,63.157 C18.201,62.95 18.527,62.83 18.861,62.83 C19.053,62.83 19.242,62.87 19.408,62.946 C19.818,63.131 19.949,63.495 20.115,63.957 L20.164,64.09 C20.689,65.498 21.15,66.675 21.701,67.847 C22.351,69.23 23.088,70.524 23.89,71.694 C24.281,72.265 24.709,72.833 25.164,73.382 C25.359,73.618 25.553,73.859 25.74,74.099 C25.771,74.137 25.799,74.171 25.822,74.202 C25.806,74.196 25.793,74.19 25.783,74.185" id="Fill-349" fill="#FFFFFE"></path>
                <path d="M25.785,56.925 C25.457,56.786 25.199,56.642 24.898,56.459 C24.41,56.158 23.908,55.781 23.365,55.306 C22.386,54.446 21.441,53.378 20.555,52.135 C19.812,51.089 19.115,49.941 18.484,48.722 C18.205,48.186 17.931,47.648 17.691,47.093 C17.51,46.662 17.613,46.203 17.965,45.895 C18.201,45.687 18.527,45.569 18.861,45.569 C19.076,45.569 19.285,45.617 19.465,45.711 C19.838,45.905 19.969,46.272 20.119,46.697 L20.195,46.911 C20.623,48.053 21.131,49.378 21.738,50.664 C22.39,52.043 23.095,53.276 23.892,54.433 C24.283,55.003 24.711,55.571 25.164,56.12 C25.359,56.357 25.553,56.597 25.74,56.837 C25.771,56.875 25.797,56.909 25.822,56.941 C25.806,56.935 25.795,56.929 25.785,56.925" id="Fill-350" fill="#FFFFFE"></path>
                <path d="M25.785,38.806 C25.435,38.66 25.158,38.497 24.898,38.34 C24.416,38.044 23.914,37.667 23.365,37.187 C22.385,36.327 21.439,35.26 20.555,34.016 C19.808,32.965 19.111,31.817 18.484,30.603 C18.205,30.067 17.931,29.528 17.691,28.976 C17.508,28.545 17.613,28.084 17.965,27.776 C18.201,27.569 18.529,27.45 18.861,27.45 C19.076,27.45 19.285,27.499 19.465,27.592 C19.838,27.785 19.967,28.153 20.117,28.578 L20.195,28.794 C20.623,29.936 21.131,31.261 21.738,32.547 C22.392,33.926 23.095,35.158 23.892,36.314 C24.275,36.874 24.703,37.442 25.164,38.001 C25.359,38.238 25.551,38.477 25.738,38.719 C25.769,38.756 25.797,38.79 25.82,38.821 C25.806,38.815 25.795,38.81 25.785,38.806" id="Fill-351" fill="#FFFFFE"></path>
                <path d="M11.804,146.448 C10.972,146.747 9.328,147.238 7.386,147.238 C5.209,147.238 3.416,146.683 2.006,145.339 C0.768,144.142 -1.77635684e-15,142.221 -1.77635684e-15,139.98 C0.021,135.689 2.967,132.552 7.791,132.552 C9.457,132.552 10.759,132.914 11.378,133.213 L10.929,134.728 C10.161,134.387 9.201,134.11 7.749,134.11 C4.248,134.11 1.964,136.287 1.964,139.894 C1.964,143.545 4.162,145.701 7.513,145.701 C8.73,145.701 9.563,145.53 9.99,145.317 L9.99,141.026 L7.066,141.026 L7.066,139.532 L11.804,139.532 L11.804,146.448" id="Fill-425" fill="#2B2D2F"></path>
                <polyline id="Fill-426" fill="#2B2D2F" points="14.647 132.701 16.504 132.701 16.504 145.53 22.652 145.53 22.652 147.089 14.647 147.089 14.647 132.701"></polyline>
                <path d="M25.813,132.701 L25.813,141.219 C25.813,144.441 27.244,145.807 29.165,145.807 C31.3,145.807 32.666,144.399 32.666,141.219 L32.666,132.701 L34.545,132.701 L34.545,141.091 C34.545,145.509 32.218,147.323 29.101,147.323 C26.155,147.323 23.935,145.637 23.935,141.176 L23.935,132.701 L25.813,132.701" id="Fill-427" fill="#2B2D2F"></path>
                <polyline id="Fill-428" fill="#2B2D2F" points="40.504 134.28 36.127 134.28 36.127 132.701 46.779 132.701 46.779 134.28 42.382 134.28 42.382 147.089 40.504 147.089 40.504 134.28"></polyline>
                <polyline id="Fill-429" fill="#2B2D2F" points="55.832 140.343 50.24 140.343 50.24 145.53 56.473 145.53 56.473 147.089 48.383 147.089 48.383 132.701 56.152 132.701 56.152 134.26 50.24 134.26 50.24 138.806 55.832 138.806 55.832 140.343"></polyline>
                <path d="M58.887,147.089 L58.887,132.701 L60.916,132.701 L65.526,139.98 C66.594,141.667 67.426,143.182 68.109,144.655 L68.152,144.633 C67.981,142.713 67.938,140.962 67.938,138.721 L67.938,132.701 L69.689,132.701 L69.689,147.089 L67.81,147.089 L63.242,139.788 C62.238,138.187 61.278,136.543 60.553,134.985 L60.488,135.007 C60.595,136.821 60.639,138.55 60.639,140.94 L60.639,147.089 L58.887,147.089" id="Fill-430" fill="#2B2D2F"></path>
            </g>
            <g id="Group" transform="translate(770.145000, 183.150189)"></g>
        </g>
    </g>
</svg>