<?xml version="1.0" encoding="UTF-8"?>
<svg width="1440px" height="20px" viewBox="0 0 1440 20" version="1.1" xmlns="http://www.w3.org/2000/svg" xmlns:xlink="http://www.w3.org/1999/xlink">
    <title>Group</title>
    <g id="Page-1" stroke="none" stroke-width="1" fill="none" fill-rule="evenodd">
        <g id="Artboard" transform="translate(0.000000, -76.000000)" fill="#2B2D2F">
            <g id="Group" transform="translate(0.000000, 76.000000)">
                <g transform="translate(710.000000, 0.000000)" id="Logo-Mark">
                    <path d="M19.4488646,14.9906015 C20.8343597,14.9906015 21.9575254,16.0888504 21.9575254,17.443609 C21.9575254,18.7983677 20.8343597,19.8966165 19.4488646,19.8966165 L19.4488646,19.8966165 L2.50866076,19.8966165 C1.12316568,19.8966165 -8.53897849e-15,18.7983677 -8.53897849e-15,17.443609 C-8.53897849e-15,16.0888504 1.12316568,14.9906015 2.50866076,14.9906015 L2.50866076,14.9906015 Z M19.4488646,7.49530075 C20.8343597,7.49530075 21.9575254,8.59354963 21.9575254,9.94830827 C21.9575254,11.3030669 20.8343597,12.4013158 19.4488646,12.4013158 L19.4488646,12.4013158 L2.50866076,12.4013158 C1.12316568,12.4013158 -8.53897849e-15,11.3030669 -8.53897849e-15,9.94830827 C-8.53897849e-15,8.59354963 1.12316568,7.49530075 2.50866076,7.49530075 L2.50866076,7.49530075 Z M19.4488646,2.28388736e-15 C20.8343597,2.28388736e-15 21.9575254,1.09824887 21.9575254,2.45300752 C21.9575254,3.80776616 20.8343597,4.90601504 19.4488646,4.90601504 L19.4488646,4.90601504 L2.50866076,4.90601504 C1.12316568,4.90601504 -8.53897849e-15,3.80776616 -8.53897849e-15,2.45300752 C-8.53897849e-15,1.09824887 1.12316568,2.28388736e-15 2.50866076,2.28388736e-15 L2.50866076,2.28388736e-15 Z" id="Combined-Shape"/>
                </g>
                <rect id="Rectangle" x="0" y="9" width="688" height="2"/>
                <rect id="Rectangle" x="754" y="9" width="686" height="2"/>
            </g>
        </g>
    </g>
</svg>