<?xml version="1.0" encoding="UTF-8"?>
<svg width="159px" height="188px" viewBox="0 0 159 188" version="1.1" xmlns="http://www.w3.org/2000/svg" xmlns:xlink="http://www.w3.org/1999/xlink">
    <title>mustard@2x</title>
    <g id="Page-1" stroke="none" stroke-width="1" fill="none" fill-rule="evenodd">
        <g id="Allergens" transform="translate(-770.000000, -426.000000)">
            <g id="mustard" transform="translate(808.961000, 443.106000)">
                <path d="M40.055,73.832 C38.694,73.832 37.592,83.197 37.592,85.631 C37.592,88.064 38.694,90.037 40.055,90.037 C41.414,90.037 42.518,88.064 42.518,85.631 C42.518,83.197 41.414,73.832 40.055,73.832" id="Fill-304" fill="#2B2D2F"></path>
                <path d="M48.897,5.68434189e-14 L31.211,5.68434189e-14 C29.055,5.68434189e-14 27.307,1.724 27.307,3.855 L24.432,46.359 C24.432,48.488 26.18,50.215 28.338,50.215 L51.77,50.215 C53.928,50.215 55.678,48.488 55.678,46.359 L52.801,3.855 C52.801,1.724 51.053,5.68434189e-14 48.897,5.68434189e-14" id="Fill-305" fill="#2B2D2F"></path>
                <path d="M48.323,53.844 L31.786,53.844 C30.391,53.844 29.26,54.957 29.26,56.338 C29.26,57.715 30.391,58.83 31.786,58.83 L35.645,58.83 C35.663,59.345 35.764,59.914 35.959,60.513 C36.709,62.81 37.938,66.572 38.69,68.869 C39.44,71.166 40.668,71.166 41.42,68.869 C42.17,66.572 43.399,62.81 44.149,60.513 C44.344,59.914 44.446,59.345 44.463,58.83 L48.323,58.83 C49.717,58.83 50.85,57.715 50.85,56.338 C50.85,54.957 49.717,53.844 48.323,53.844" id="Fill-306" fill="#2B2D2F"></path>
                <path d="M29.608,44.525 C28.987,39.119 30.997,11.98 31.399,8.594 C31.594,6.947 32.745,5.657 34.02,5.657 C34.094,5.657 34.17,5.661 34.245,5.67 C35.602,5.834 36.534,7.409 36.323,9.181 C35.918,12.565 31.487,39.415 29.608,44.525" id="Fill-356" fill="#FFFFFE"></path>
                <path d="M12.542,134.427 C12.436,132.42 12.307,130.008 12.329,128.215 L12.265,128.215 C11.774,129.901 11.176,131.715 10.45,133.68 L7.911,140.66 L6.5,140.66 L4.174,133.808 C3.491,131.779 2.914,129.922 2.509,128.215 L2.467,128.215 C2.424,130.008 2.317,132.42 2.189,134.576 L1.805,140.745 L0.034,140.745 L1.036,126.358 L3.406,126.358 L5.861,133.317 C6.459,135.088 6.95,136.668 7.313,138.162 L7.376,138.162 C7.739,136.711 8.251,135.131 8.892,133.317 L11.454,126.358 L13.823,126.358 L14.719,140.745 L12.905,140.745 L12.542,134.427" id="Fill-389" fill="#2B2D2F"></path>
                <path d="M19.441,126.358 L19.441,134.875 C19.441,138.098 20.872,139.464 22.792,139.464 C24.927,139.464 26.293,138.056 26.293,134.875 L26.293,126.358 L28.172,126.358 L28.172,134.747 C28.172,139.165 25.845,140.98 22.729,140.98 C19.783,140.98 17.563,139.294 17.563,134.832 L17.563,126.358 L19.441,126.358" id="Fill-390" fill="#2B2D2F"></path>
                <path d="M31.142,138.483 C31.975,138.995 33.192,139.422 34.472,139.422 C36.372,139.422 37.482,138.418 37.482,136.967 C37.482,135.622 36.713,134.854 34.771,134.107 C32.422,133.274 30.971,132.057 30.971,130.029 C30.971,127.787 32.829,126.122 35.625,126.122 C37.098,126.122 38.164,126.464 38.805,126.827 L38.293,128.343 C37.824,128.086 36.864,127.659 35.561,127.659 C33.597,127.659 32.85,128.833 32.85,129.816 C32.85,131.16 33.725,131.823 35.71,132.591 C38.144,133.531 39.381,134.704 39.381,136.818 C39.381,139.037 37.739,140.98 34.344,140.98 C32.956,140.98 31.441,140.553 30.672,140.041 L31.142,138.483" id="Fill-391" fill="#2B2D2F"></path>
                <polyline id="Fill-392" fill="#2B2D2F" points="44.657 127.937 40.281 127.937 40.281 126.358 50.933 126.358 50.933 127.937 46.536 127.937 46.536 140.745 44.657 140.745 44.657 127.937"></polyline>
                <path d="M53.262,136.22 L51.768,140.745 L49.846,140.745 L54.735,126.358 L56.977,126.358 L61.886,140.745 L59.901,140.745 L58.364,136.22 L53.262,136.22 Z M57.98,134.768 L56.571,130.627 C56.25,129.688 56.038,128.833 55.824,128.001 L55.782,128.001 C55.568,128.855 55.333,129.731 55.055,130.606 L53.647,134.768 L57.98,134.768 L57.98,134.768 Z" id="Fill-393" fill="#2B2D2F"></path>
                <path d="M64.002,126.55 C64.942,126.358 66.287,126.25 67.568,126.25 C69.553,126.25 70.834,126.614 71.731,127.425 C72.456,128.066 72.862,129.047 72.862,130.157 C72.862,132.057 71.667,133.317 70.151,133.829 L70.151,133.893 C71.26,134.278 71.922,135.302 72.264,136.796 C72.734,138.803 73.075,140.191 73.373,140.745 L71.453,140.745 C71.218,140.319 70.898,139.102 70.493,137.309 C70.065,135.323 69.297,134.576 67.61,134.512 L65.86,134.512 L65.86,140.745 L64.002,140.745 L64.002,126.55 Z M65.86,133.103 L67.76,133.103 C69.745,133.103 71.004,132.015 71.004,130.37 C71.004,128.514 69.66,127.702 67.696,127.681 C66.799,127.681 66.159,127.767 65.86,127.852 L65.86,133.103 L65.86,133.103 Z" id="Fill-394" fill="#2B2D2F"></path>
                <path d="M75.49,126.55 C76.622,126.379 77.965,126.25 79.439,126.25 C82.107,126.25 84.006,126.869 85.266,128.044 C86.547,129.218 87.294,130.883 87.294,133.21 C87.294,135.558 86.569,137.48 85.223,138.803 C83.879,140.148 81.659,140.873 78.862,140.873 C77.539,140.873 76.428,140.81 75.49,140.702 L75.49,126.55 Z M77.346,139.273 C77.817,139.358 78.5,139.379 79.225,139.379 C83.196,139.379 85.352,137.159 85.352,133.274 C85.373,129.88 83.452,127.724 79.524,127.724 C78.563,127.724 77.838,127.809 77.346,127.916 L77.346,139.273 L77.346,139.273 Z" id="Fill-395" fill="#2B2D2F"></path>
            </g>
            <g id="Group" transform="translate(770.145000, 183.150189)"></g>
        </g>
    </g>
</svg>