<?xml version="1.0" encoding="UTF-8"?>
<svg width="159px" height="188px" viewBox="0 0 159 188" version="1.1" xmlns="http://www.w3.org/2000/svg" xmlns:xlink="http://www.w3.org/1999/xlink">
    <title>nuts@2x</title>
    <g id="Page-1" stroke="none" stroke-width="1" fill="none" fill-rule="evenodd">
        <g id="Allergens" transform="translate(-939.000000, -183.000000)">
            <g id="nuts" transform="translate(979.089000, 201.601323)">
                <path d="M44.959,4.50067679 C42.959,3.72667679 40.493,-1.04232321 39.561,0.207676794 C26.579,17.6096768 27.02,57.3466768 39.561,77.0256768 C40.122,77.9066768 41.713,78.4636768 42.862,78.3576768 C55.797,77.1566768 74.172,68.9026768 74.172,46.8326768 C74.172,26.2856768 56.745,9.06467679 44.959,4.50067679" id="Fill-333" fill="#2B2D2F"></path>
                <path d="M33.167,3.30367679 C32.885,3.15867679 30.764,4.21367679 30.02,4.50067679 C18.235,9.06667679 0.807,26.2856768 0.807,46.8326768 C0.807,68.8406768 19.077,77.1096768 32.004,78.3468844 C33.159,78.4576768 9.918,34.0296768 33.167,3.30367679" id="Fill-334" fill="#2B2D2F"></path>
                <path d="M46.428,70.4516768 C46.399,70.4516768 46.131,70.4326768 45.598,69.8076768 C45.071,69.2176768 44.59,68.5146768 44.161,67.7106768 C43.34,66.1626768 42.733,64.4186768 42.305,62.3806768 C42.18,61.7736768 42.077,61.1616768 41.987,60.5486768 C41.909,60.0066768 41.874,59.6266768 42.077,59.2946768 C42.303,58.9216768 42.727,58.6996768 43.211,58.6996768 C43.664,58.6996768 44.075,58.9036768 44.307,59.2446768 C44.502,59.5316768 44.512,59.9156768 44.524,60.3606768 L44.534,60.6826768 C44.563,61.3156768 44.61,61.9496768 44.672,62.5826768 C44.782,63.6726768 44.959,64.7886768 45.198,65.8996768 C45.471,67.1706768 45.909,68.4046768 46.374,69.6616768 L47.444,69.2906768 L46.379,69.6786768 C46.45,69.8746768 46.618,70.3346768 46.485,70.4296768 L46.428,70.4516768 Z M21.03,70.4426768 C21.01,70.4426768 20.983,70.4346768 20.952,70.4206768 C20.637,70.2716768 20.344,69.8356768 20.108,69.4836768 C19.84,69.0866768 19.651,68.7476768 19.459,68.4076768 C18.881,67.3756768 18.418,66.1996768 18.073,64.8916768 C17.711,63.5176768 17.534,62.1766768 17.543,60.9056768 L17.545,60.7606768 C17.545,60.3346768 17.547,59.8956768 17.719,59.6006768 C17.918,59.2586768 18.327,59.0366768 18.76,59.0366768 C19.272,59.0536768 19.735,59.3046768 19.981,59.6776768 C20.18,59.9746768 20.151,60.2856768 20.083,60.8076768 L20.049,61.0656768 C19.895,62.4226768 19.928,63.8686768 20.145,65.3646768 C20.297,66.4086768 20.542,67.4336768 20.778,68.4266768 L20.864,68.7816768 L20.94,69.0606768 C21.049,69.4506768 21.163,69.8536768 21.159,70.2046768 C21.157,70.3376768 21.086,70.4426768 21.03,70.4426768 Z M55.282,60.6486768 C55.09,60.6486768 54.788,60.1656768 54.661,59.9596768 C54.428,59.5866768 54.231,59.2006768 54.036,58.7416768 C53.542,57.5706768 53.186,56.3516768 52.977,55.1196768 C52.649,53.1716768 52.557,51.1636768 52.696,48.9816768 C52.719,48.6316768 52.75,48.2806768 52.786,47.9296768 C52.836,47.4396768 52.879,47.0166768 53.086,46.7046768 C53.329,46.3366768 53.733,46.1166768 54.164,46.1166768 C54.594,46.1166768 54.975,46.3256768 55.209,46.6886768 C55.504,47.1466768 55.432,47.6306768 55.292,48.3826768 L55.245,48.6266768 C54.563,52.3926768 54.528,55.8316768 55.139,58.8456768 L55.188,59.0896768 C55.264,59.4626768 55.342,59.8386768 55.387,60.2146768 C55.417,60.4736768 55.358,60.6186768 55.334,60.6396768 L55.282,60.6486768 Z M9.444,56.6106768 C9.331,56.6106768 9.047,56.4736768 8.436,55.5506768 C6.995,53.3746768 6.188,50.6216768 6.069,47.5376768 C6.016,46.1546768 6.088,44.7936768 6.28,43.4916768 L6.313,43.2546768 C6.35,42.9706768 6.387,42.7016768 6.467,42.4706768 C6.618,42.0306768 6.946,41.6866768 7.342,41.5506768 C7.467,41.5076768 7.594,41.4846768 7.719,41.4846768 C8.028,41.4846768 8.327,41.6216768 8.563,41.8706768 C8.838,42.1626768 8.991,42.5736768 8.967,42.9716768 C8.956,43.1806768 8.901,43.4086768 8.842,43.6496768 L8.784,43.9026768 C8.666,44.4296768 8.565,44.9566768 8.481,45.4886768 C7.975,48.6206768 8.149,51.6586768 8.997,54.5186768 C9.055,54.7206768 9.122,54.9226768 9.188,55.1256768 C9.315,55.5146768 9.436,55.8846768 9.508,56.2556768 C9.528,56.3436768 9.561,56.5476768 9.502,56.5866768 L9.444,56.6106768 Z M63.372,53.7416768 C63.311,53.6966768 63.293,53.6406768 63.313,53.4576768 C63.352,53.0756768 63.454,52.6926768 63.561,52.2866768 L63.625,52.0436768 C64.002,50.5836768 64.333,49.2626768 64.586,47.8816768 C65.161,44.7296768 65.229,41.7586768 64.786,39.0476768 C64.684,38.4166768 64.541,37.7556768 64.366,37.0846768 C64.313,36.8876768 64.254,36.6926768 64.196,36.4966768 C64.129,36.2816768 64.065,36.0656768 64.01,35.8476768 C63.881,35.3146768 63.936,34.5366768 64.293,34.0826768 C64.467,33.8616768 64.69,33.7546768 64.979,33.7546768 C65.879,33.7656768 66.426,34.7706768 66.624,35.6286768 C66.891,36.7826768 67.055,37.7486768 67.143,38.6666768 L67.163,38.8786768 C67.315,40.6866768 67.245,42.5546768 66.948,44.4256768 C66.487,47.3436768 65.569,50.1346768 64.289,52.4986768 L64.239,52.5906768 C63.713,53.5716768 63.461,53.7236768 63.372,53.7416768 Z M41.522,53.3956768 C41.409,53.3776768 41.311,53.3106768 41.153,53.1176768 C40.862,52.7606768 40.623,52.3336768 40.428,51.9626768 C39.944,51.0456768 39.538,50.0216768 39.182,48.8346768 C38.575,46.8066768 38.202,44.5066768 38.077,41.9996768 C38.006,40.5856768 38.012,39.1506768 38.094,37.7346768 L38.108,37.4736768 C38.145,36.7096768 38.18,35.9866768 38.557,35.4376768 C38.815,35.0576768 39.205,34.8226768 39.575,34.8226768 C39.928,34.8276768 40.274,35.0446768 40.489,35.3876768 C40.891,36.0316768 40.77,36.8436768 40.641,37.7016768 C40.61,37.9046768 40.581,38.1056768 40.557,38.3036768 C40.168,41.6286768 40.131,44.6066768 40.442,47.4106768 C40.598,48.8136768 40.866,50.2496768 41.26,51.7986768 C41.291,51.9256768 41.329,52.0536768 41.366,52.1826768 C41.471,52.5566768 41.578,52.9426768 41.578,53.2816768 C41.578,53.3326768 41.578,53.3576768 41.522,53.3956768 Z M17.147,47.5326768 C17.098,47.5326768 16.905,47.4786768 16.499,46.7846768 C15.907,45.7706768 15.495,44.5026768 15.274,43.0166768 C15.065,41.6076768 15.053,40.1376768 15.239,38.6486768 C15.395,37.3856768 15.68,36.1796768 16.084,35.0646768 C16.243,34.6326768 16.418,34.3726768 16.672,34.1966768 C16.874,34.0566768 17.124,33.9776768 17.373,33.9776768 C17.569,33.9776768 17.764,34.0256768 17.934,34.1156768 C18.323,34.3206768 18.6,34.7196768 18.655,35.1556768 C18.698,35.4936768 18.565,35.8016768 18.395,36.1896768 L18.328,36.3426768 C17.762,37.6686768 17.358,39.0596768 17.127,40.4766768 C16.879,41.9956768 16.833,43.5376768 16.985,45.0606768 C17.02,45.3946768 17.069,45.7236768 17.12,46.0536768 C17.168,46.3806768 17.219,46.7086768 17.25,47.0376768 C17.295,47.4736768 17.217,47.5096768 17.192,47.5206768 L17.147,47.5326768 Z M50.194,35.5286768 C50.157,35.5286768 50.051,35.4676768 49.973,35.3256768 C49.778,34.9706768 49.67,34.5276768 49.565,34.0996768 C49.405,33.4376768 49.295,32.7476768 49.229,31.9996768 C49.053,29.9286768 49.211,27.8866768 49.7,25.9326768 C49.897,25.1406768 50.155,24.3816768 50.467,23.6756768 C50.68,23.1916768 51.129,22.8916768 51.637,22.8916768 C51.981,22.8916768 52.307,23.0346768 52.559,23.2946768 C52.883,23.6296768 53.018,24.0966768 52.909,24.5116768 C52.85,24.7296768 52.713,24.9826768 52.582,25.2266768 C52.512,25.3576768 52.442,25.4866768 52.381,25.6126768 C52.149,26.1006768 51.961,26.6016768 51.78,27.0866768 L51.741,27.1876768 C51.459,28.0336768 51.122,29.1266768 50.946,30.2636768 L50.889,30.6286768 C50.819,31.0866768 50.747,31.5426768 50.694,32.0016768 C50.643,32.4506768 50.608,32.8976768 50.571,33.3456768 C50.53,33.8576768 50.491,34.3696768 50.426,34.8796768 C50.403,35.0606768 50.356,35.4396768 50.231,35.5146768 L50.194,35.5286768 Z M11.979,30.9886768 C11.975,30.9886768 11.965,30.9886768 11.944,30.9716768 C11.825,30.8676768 11.797,30.5126768 11.782,30.3016768 C11.75,29.9116768 11.758,29.4716768 11.805,28.9516768 C12.088,25.8236768 13.186,22.5486768 15.069,19.2166768 C15.282,18.8396768 15.491,18.5586768 15.821,18.4146768 C15.981,18.3436768 16.151,18.3076768 16.329,18.3076768 C16.604,18.3076768 16.875,18.3976768 17.094,18.5606768 C17.455,18.8326768 17.659,19.2756768 17.624,19.7176768 C17.596,20.0546768 17.405,20.3336768 17.162,20.6866768 C16.131,22.2026768 15.293,23.6066768 14.606,24.9746768 C14.528,25.1206768 14.43,25.3236768 14.295,25.6116768 L14.153,25.9146768 L14.157,25.9216768 C13.602,27.1726768 13.139,28.3316768 12.743,29.4566768 L12.637,29.7676768 C12.508,30.1556768 12.374,30.5566768 12.172,30.8506768 C12.108,30.9456768 12.02,30.9886768 11.979,30.9886768 Z M40.538,24.7606768 C40.504,24.7606768 40.479,24.7506768 40.473,24.7456768 C40.346,24.6486768 40.278,24.2946768 40.241,24.1026768 C40.131,23.5116768 40.098,22.8986768 40.071,22.2706768 C40.057,21.9396768 40.047,21.6056768 40.049,21.2726768 C40.059,20.0736768 40.137,18.8046768 40.292,17.3976768 C40.366,16.7146768 40.467,16.0416768 40.594,15.3966768 C40.684,14.9366768 40.782,14.4776768 40.887,14.0236768 C40.975,13.6376768 41.053,13.3476768 41.247,13.1396768 C41.53,12.8326768 41.879,12.7676768 42.123,12.7676768 C42.661,12.7676768 43.176,13.0756768 43.407,13.5316768 C43.604,13.9286768 43.479,14.3466768 43.252,14.9906768 L43.135,15.3286768 C42.799,16.3656768 42.481,17.4636768 42.135,18.7846768 C41.989,19.3216768 41.86,19.8796768 41.743,20.4326768 C41.678,20.7396768 41.616,21.0486768 41.555,21.3566768 C41.366,22.3036768 41.17,23.2806768 40.879,24.1856768 C40.831,24.3346768 40.717,24.6836768 40.596,24.7476768 L40.538,24.7606768 L40.538,24.7606768 Z" id="Fill-347" fill="#FFFFFE"></path>
                <path d="M14.676,139.487677 L14.676,125.099677 L16.704,125.099677 L21.315,132.378677 C22.381,134.065677 23.214,135.580677 23.897,137.053677 L23.94,137.031677 C23.77,135.111677 23.727,133.360677 23.727,131.119677 L23.727,125.099677 L25.477,125.099677 L25.477,139.487677 L23.598,139.487677 L19.03,132.186677 C18.027,130.585677 17.067,128.941677 16.34,127.383677 L16.277,127.405677 C16.383,129.219677 16.426,130.948677 16.426,133.338677 L16.426,139.487677 L14.676,139.487677" id="Fill-523" fill="#2B2D2F"></path>
                <path d="M30.583,125.099677 L30.583,133.617677 C30.583,136.839677 32.012,138.205677 33.934,138.205677 C36.069,138.205677 37.434,136.797677 37.434,133.617677 L37.434,125.099677 L39.313,125.099677 L39.313,133.489677 C39.313,137.907677 36.987,139.721677 33.87,139.721677 C30.924,139.721677 28.704,138.035677 28.704,133.574677 L28.704,125.099677 L30.583,125.099677" id="Fill-524" fill="#2B2D2F"></path>
                <polyline id="Fill-525" fill="#2B2D2F" points="45.272 126.678677 40.895 126.678677 40.895 125.099677 51.547 125.099677 51.547 126.678677 47.151 126.678677 47.151 139.487677 45.272 139.487677 45.272 126.678677"></polyline>
                <path d="M52.767,137.224677 C53.6,137.737677 54.817,138.163677 56.097,138.163677 C57.996,138.163677 59.107,137.160677 59.107,135.708677 C59.107,134.364677 58.338,133.595677 56.396,132.848677 C54.047,132.015677 52.596,130.798677 52.596,128.771677 C52.596,126.529677 54.454,124.864677 57.25,124.864677 C58.723,124.864677 59.789,125.205677 60.43,125.569677 L59.918,127.084677 C59.449,126.827677 58.489,126.401677 57.186,126.401677 C55.222,126.401677 54.475,127.575677 54.475,128.557677 C54.475,129.902677 55.35,130.564677 57.335,131.332677 C59.769,132.272677 61.006,133.446677 61.006,135.559677 C61.006,137.779677 59.364,139.721677 55.969,139.721677 C54.582,139.721677 53.066,139.294677 52.297,138.783677 L52.767,137.224677" id="Fill-526" fill="#2B2D2F"></path>
            </g>
            <g id="Group" transform="translate(770.145000, 183.150189)"></g>
        </g>
    </g>
</svg>