<?xml version="1.0" encoding="UTF-8"?>
<svg width="159px" height="188px" viewBox="0 0 159 188" version="1.1" xmlns="http://www.w3.org/2000/svg" xmlns:xlink="http://www.w3.org/1999/xlink">
    <title>peanuts@2x</title>
    <g id="Page-1" stroke="none" stroke-width="1" fill="none" fill-rule="evenodd">
        <g id="Allergens" transform="translate(-1106.000000, -426.000000)">
            <g id="peanuts" transform="translate(1144.238500, 443.866000)">
                <path d="M24.381,32.484 C23.34,29.583 22.756,26.363 22.756,22.962 C22.756,10.281 30.799,0 40.717,0 C50.639,0 58.682,10.281 58.682,22.962 C58.682,26.363 58.098,29.583 57.059,32.484 C56.459,34.152 57.004,39.119 57.977,40.257 C59.207,41.699 60.311,43.292 61.266,45.013 C63.799,49.584 65.275,55.052 65.275,60.933 C65.275,77.007 54.281,90.037 40.717,90.037 C27.156,90.037 16.164,77.007 16.164,60.933 C16.164,55.052 17.641,49.584 20.174,45.013 C21.383,42.832 22.832,40.851 24.479,39.13 C25.156,38.421 24.979,34.152 24.381,32.484" id="Fill-335" fill="#2B2D2F"></path>
                <path d="M27.855,79.582 C26.314,79.582 24.625,78.118 23.746,76.02 C23.203,74.728 23.037,73.379 23.281,72.224 C23.5,71.183 24.025,70.44 24.76,70.131 C25.012,70.026 25.283,69.973 25.566,69.973 C27.105,69.973 28.795,71.437 29.676,73.534 C30.73,76.052 30.266,78.75 28.66,79.424 C28.41,79.529 28.139,79.582 27.855,79.582 Z M38.406,72.007 C36.645,72.006 34.77,70.187 33.947,67.68 C33,64.788 33.772,61.827 35.631,61.215 C35.861,61.14 36.104,61.102 36.353,61.102 C38.117,61.102 39.992,62.922 40.812,65.43 C41.762,68.322 40.99,71.282 39.129,71.893 C38.898,71.968 38.654,72.007 38.406,72.007 Z M24.375,64.014 C22.342,63.977 20.672,61.348 20.729,58.275 C20.787,55.185 22.496,52.671 24.539,52.671 C26.615,52.709 28.285,55.338 28.229,58.412 C28.172,61.501 26.463,64.015 24.422,64.015 L24.375,64.014 Z M36.48,55.128 C35.684,55.128 34.875,54.352 34.514,53.241 C34.018,51.714 34.469,49.998 35.5,49.494 C35.678,49.406 35.865,49.362 36.055,49.362 C36.85,49.362 37.658,50.139 38.022,51.251 C38.518,52.776 38.066,54.492 37.037,54.996 C36.855,55.084 36.67,55.128 36.48,55.128 Z M29.35,27.648 C28.305,27.648 27.277,26.328 27.059,24.705 C26.822,22.967 27.551,21.373 28.65,21.225 C28.703,21.217 28.758,21.214 28.812,21.214 C29.857,21.214 30.885,22.535 31.105,24.159 C31.338,25.895 30.609,27.489 29.514,27.637 C29.459,27.645 29.404,27.648 29.35,27.648 Z M36.049,21.373 C35.328,21.373 34.754,20.543 34.74,19.487 C34.725,18.248 35.459,17.099 36.346,16.977 C36.393,16.97 36.441,16.966 36.488,16.966 C37.207,16.966 37.781,17.794 37.795,18.85 C37.811,20.088 37.074,21.239 36.189,21.363 C36.142,21.369 36.096,21.373 36.049,21.373 Z M30.357,14.88 C30.295,14.88 30.232,14.873 30.172,14.86 C29.719,14.757 29.471,14.309 29.365,14.05 C29.141,13.511 29.102,12.81 29.256,12.126 C29.553,10.816 30.412,10.033 31.07,10.033 C31.133,10.033 31.197,10.04 31.258,10.053 C31.709,10.156 31.957,10.604 32.064,10.863 C32.287,11.402 32.328,12.103 32.172,12.787 C31.877,14.097 31.018,14.88 30.357,14.88 L30.357,14.88 Z" id="Fill-358" fill="#FFFFFE"></path>
                <path d="M0.439,125.769 C1.336,125.619 2.51,125.49 4.005,125.49 C5.84,125.49 7.185,125.918 8.039,126.687 C8.829,127.369 9.299,128.415 9.299,129.696 C9.299,130.998 8.914,132.022 8.189,132.771 C7.207,133.816 5.605,134.35 3.791,134.35 C3.236,134.35 2.725,134.328 2.297,134.222 L2.297,139.985 L0.439,139.985 L0.439,125.769 Z M2.297,132.706 C2.703,132.813 3.215,132.855 3.834,132.855 C6.075,132.855 7.441,131.767 7.441,129.781 C7.441,127.882 6.097,126.964 4.047,126.964 C3.236,126.964 2.617,127.027 2.297,127.113 L2.297,132.706 L2.297,132.706 Z" id="Fill-542" fill="#2B2D2F"></path>
                <polyline id="Fill-543" fill="#2B2D2F" points="19.249 133.239 13.656 133.239 13.656 138.427 19.89 138.427 19.89 139.985 11.799 139.985 11.799 125.598 19.569 125.598 19.569 127.156 13.656 127.156 13.656 131.703 19.249 131.703 19.249 133.239"></polyline>
                <path d="M24.631,135.46 L23.137,139.985 L21.215,139.985 L26.104,125.598 L28.346,125.598 L33.255,139.985 L31.27,139.985 L29.732,135.46 L24.631,135.46 Z M29.349,134.008 L27.939,129.867 C27.619,128.928 27.406,128.073 27.192,127.241 L27.15,127.241 C26.937,128.095 26.701,128.971 26.424,129.846 L25.016,134.008 L29.349,134.008 L29.349,134.008 Z" id="Fill-544" fill="#2B2D2F"></path>
                <path d="M35.371,139.985 L35.371,125.598 L37.399,125.598 L42.01,132.877 C43.078,134.563 43.91,136.079 44.594,137.552 L44.637,137.53 C44.465,135.609 44.422,133.858 44.422,131.617 L44.422,125.598 L46.173,125.598 L46.173,139.985 L44.295,139.985 L39.727,132.685 C38.723,131.084 37.762,129.439 37.037,127.882 L36.973,127.903 C37.079,129.718 37.122,131.446 37.122,133.837 L37.122,139.985 L35.371,139.985" id="Fill-545" fill="#2B2D2F"></path>
                <path d="M51.277,125.598 L51.277,134.115 C51.277,137.338 52.708,138.704 54.629,138.704 C56.764,138.704 58.131,137.296 58.131,134.115 L58.131,125.598 L60.009,125.598 L60.009,133.987 C60.009,138.405 57.682,140.22 54.565,140.22 C51.619,140.22 49.399,138.534 49.399,134.072 L49.399,125.598 L51.277,125.598" id="Fill-546" fill="#2B2D2F"></path>
                <polyline id="Fill-547" fill="#2B2D2F" points="65.967 127.177 61.591 127.177 61.591 125.598 72.243 125.598 72.243 127.177 67.846 127.177 67.846 139.985 65.967 139.985 65.967 127.177"></polyline>
                <path d="M73.463,137.723 C74.295,138.235 75.512,138.662 76.793,138.662 C78.692,138.662 79.803,137.658 79.803,136.207 C79.803,134.862 79.034,134.094 77.092,133.347 C74.743,132.514 73.291,131.297 73.291,129.269 C73.291,127.027 75.148,125.362 77.945,125.362 C79.418,125.362 80.485,125.704 81.126,126.067 L80.613,127.583 C80.145,127.326 79.184,126.899 77.881,126.899 C75.918,126.899 75.17,128.073 75.17,129.056 C75.17,130.4 76.045,131.063 78.031,131.831 C80.465,132.771 81.702,133.944 81.702,136.058 C81.702,138.277 80.058,140.22 76.664,140.22 C75.277,140.22 73.762,139.793 72.992,139.281 L73.463,137.723" id="Fill-548" fill="#2B2D2F"></path>
            </g>
            <g id="Group" transform="translate(770.145000, 183.150189)"></g>
        </g>
    </g>
</svg>