<?xml version="1.0" encoding="UTF-8"?>
<svg width="159px" height="188px" viewBox="0 0 159 188" version="1.1" xmlns="http://www.w3.org/2000/svg" xmlns:xlink="http://www.w3.org/1999/xlink">
    <title>sesame@2x</title>
    <g id="Page-1" stroke="none" stroke-width="1" fill="none" fill-rule="evenodd">
        <g id="Allergens" transform="translate(-770.000000, -183.000000)">
            <g id="sesame" transform="translate(815.461000, 208.560329)">
                <path d="M70.906,7.51967061 C68.775,6.38367061 66.128,6.22867061 64.92,8.10167061 C62.506,11.8526706 60.593,12.9906706 55.838,16.2106706 C53.746,17.6276706 45.236,24.4036706 40.849,33.6156706 C42.074,36.3426706 43.123,39.2066706 43.841,42.1616706 C44.58,45.1996706 46.105,52.9316706 44.941,60.9256706 C52.849,63.3246706 61.341,54.8396706 65.449,48.5166706 C71.31,39.5006706 72.195,27.6116706 72.191,24.9456706 C72.177,19.1786706 72.045,16.9486706 73.779,12.8356706 C74.644,10.7786706 73.037,8.65767061 70.906,7.51967061" id="Fill-303" fill="#2B2D2F"></path>
                <path d="M24.16,15.0516706 C18.584,9.84967061 16.312,7.95967061 13.923,2.55667061 C12.728,-0.144329387 9.218,-0.499329387 6.183,0.537670613 C3.15,1.57667061 0.59,4.00467061 1.299,6.87167061 C2.718,12.6056706 2.076,15.4906706 0.853,23.0176706 C0.289,26.4966706 -1.032,42.2056706 4.781,55.2076706 C9.171,65.0296706 19.715,79.2116706 31.677,75.1216706 C43.64,71.0356706 43.299,53.3656706 40.756,42.9106706 C37.394,29.0706706 26.734,17.4576706 24.16,15.0516706" id="Fill-307" fill="#2B2D2F"></path>
                <path d="M20.146,68.7306706 C19.879,68.5736706 19.609,68.3976706 19.343,68.2066706 C18.603,67.6756706 17.834,66.9826706 17.054,66.1466706 C15.537,64.5236706 14,62.3056706 12.611,59.7326706 C11.943,58.4916706 11.293,57.1456706 10.683,55.7316706 C10.093,54.3566706 9.535,52.9076706 9.025,51.4256706 C8.052,48.6036706 7.242,45.6136706 6.621,42.5366706 C6.068,39.8016706 5.671,36.9596706 5.474,34.3196706 C5.388,33.1526706 5.336,31.9856706 5.318,30.8526706 C5.304,29.9546706 5.316,29.0556706 5.355,28.0226706 C5.378,27.5776706 5.396,27.2216706 5.418,26.9006706 L5.488,25.9926706 L5.511,25.7746706 C5.55,25.3836706 5.578,25.1046706 5.601,24.9526706 C5.775,23.6776706 6.302,22.4846706 7.013,21.7476706 C7.177,21.5796706 7.343,21.4376706 7.504,21.3286706 C7.656,21.2276706 7.814,21.1466706 7.97,21.0916706 C8.128,21.0356706 8.281,21.0076706 8.429,21.0076706 C8.541,21.0076706 8.652,21.0236706 8.761,21.0556706 C9.017,21.1306706 9.252,21.2906706 9.466,21.5316706 C9.578,21.6566706 9.677,21.7986706 9.771,21.9626706 C9.875,22.1406706 9.96,22.3246706 10.031,22.5176706 C10.361,23.4006706 10.455,24.4556706 10.302,25.5746706 L10.154,26.6296706 L10.068,27.3236706 L9.957,28.3266706 C9.888,29.0826706 9.818,29.9446706 9.771,30.9176706 C9.722,31.9756706 9.701,33.0586706 9.709,34.1366706 C9.724,36.6126706 9.9,39.3146706 10.216,41.9536706 C10.576,44.9236706 11.097,47.8396706 11.767,50.6216706 C12.117,52.0826706 12.509,53.5206706 12.933,54.8946706 C13.365,56.2906706 13.836,57.6456706 14.334,58.9246706 C15.359,61.5306706 16.517,63.8506706 17.687,65.6386706 C18.294,66.5656706 18.9,67.3716706 19.488,68.0316706 C19.699,68.2706706 19.92,68.5046706 20.146,68.7306706" id="Fill-308" fill="#FFFFFE"></path>
                <path d="M60.98,19.5576706 C60.941,19.4816706 60.892,19.4116706 60.836,19.3496706 C60.759,19.2686706 60.666,19.1986706 60.554,19.1406706 C60.443,19.0836706 60.316,19.0366706 60.183,19.0056706 C60.041,18.9726706 59.879,18.9556706 59.701,18.9516706 C58.931,18.9396706 58.007,19.2676706 57.218,19.8306706 C57.123,19.8976706 56.955,20.0256706 56.72,20.2066706 L56.589,20.3066706 L56.054,20.7356706 C55.869,20.8926706 55.664,21.0666706 55.408,21.2826706 C54.822,21.7966706 54.322,22.2566706 53.836,22.7266706 C53.224,23.3236706 52.611,23.9576706 52.017,24.6066706 C50.67,26.0816706 49.316,27.7706706 48.099,29.4896706 C46.732,31.4276706 45.509,33.4206706 44.462,35.4176706 C43.912,36.4656706 43.404,37.5226706 42.953,38.5586706 C42.919,38.6366706 42.892,38.7106706 42.859,38.7876706 C43.123,39.5906706 43.363,40.4006706 43.582,41.2196706 C43.892,40.6056706 44.218,39.9876706 44.57,39.3676706 C45.105,38.4236706 45.693,37.4616706 46.312,36.5146706 C47.494,34.7026706 48.824,32.9076706 50.267,31.1736706 C51.552,29.6336706 52.945,28.1386706 54.293,26.8476706 C54.881,26.2866706 55.486,25.7396706 56.091,25.2176706 C56.648,24.7396706 57.158,24.3336706 57.609,23.9806706 L58.215,23.5206706 L58.64,23.2106706 L59.295,22.7466706 C59.986,22.2516706 60.517,21.6546706 60.832,21.0146706 C60.902,20.8776706 60.957,20.7346706 61.002,20.5836706 C61.045,20.4486706 61.07,20.3186706 61.082,20.1936706 C61.103,19.9496706 61.07,19.7386706 60.98,19.5576706" id="Fill-346" fill="#FFFFFE"></path>
                <path d="M0.574,130.265671 C1.406,130.778671 2.623,131.204671 3.904,131.204671 C5.803,131.204671 6.914,130.201671 6.914,128.749671 C6.914,127.405671 6.145,126.636671 4.203,125.889671 C1.854,125.056671 0.402,123.839671 0.402,121.812671 C0.402,119.570671 2.259,117.905671 5.056,117.905671 C6.529,117.905671 7.596,118.246671 8.237,118.610671 L7.724,120.125671 C7.255,119.868671 6.294,119.442671 4.992,119.442671 C3.029,119.442671 2.281,120.616671 2.281,121.598671 C2.281,122.943671 3.156,123.605671 5.142,124.373671 C7.576,125.313671 8.813,126.487671 8.813,128.600671 C8.813,130.820671 7.17,132.762671 3.775,132.762671 C2.388,132.762671 0.873,132.335671 0.103,131.824671 L0.574,130.265671" id="Fill-403" fill="#1A1919"></path>
                <polyline id="Fill-404" fill="#1A1919" points="18.806 125.782671 13.212 125.782671 13.212 130.969671 19.447 130.969671 19.447 132.528671 11.356 132.528671 11.356 118.140671 19.127 118.140671 19.127 119.699671 13.212 119.699671 13.212 124.245671 18.806 124.245671 18.806 125.782671"></polyline>
                <path d="M21.605,130.265671 C22.437,130.778671 23.654,131.204671 24.935,131.204671 C26.835,131.204671 27.945,130.201671 27.945,128.749671 C27.945,127.405671 27.176,126.636671 25.234,125.889671 C22.885,125.056671 21.433,123.839671 21.433,121.812671 C21.433,119.570671 23.291,117.905671 26.087,117.905671 C27.56,117.905671 28.627,118.246671 29.268,118.610671 L28.756,120.125671 C28.287,119.868671 27.326,119.442671 26.023,119.442671 C24.06,119.442671 23.312,120.616671 23.312,121.598671 C23.312,122.943671 24.187,123.605671 26.173,124.373671 C28.607,125.313671 29.844,126.487671 29.844,128.600671 C29.844,130.820671 28.201,132.762671 24.806,132.762671 C23.419,132.762671 21.904,132.335671 21.134,131.824671 L21.605,130.265671" id="Fill-405" fill="#1A1919"></path>
                <path d="M34.715,128.002671 L33.22,132.528671 L31.299,132.528671 L36.187,118.140671 L38.428,118.140671 L43.337,132.528671 L41.353,132.528671 L39.816,128.002671 L34.715,128.002671 Z M39.431,126.550671 L38.023,122.410671 C37.703,121.470671 37.489,120.616671 37.275,119.784671 L37.233,119.784671 C37.019,120.637671 36.785,121.513671 36.507,122.388671 L35.098,126.550671 L39.431,126.550671 L39.431,126.550671 Z" id="Fill-406" fill="#1A1919"></path>
                <path d="M57.494,126.209671 C57.387,124.202671 57.259,121.790671 57.281,119.997671 L57.216,119.997671 C56.726,121.683671 56.129,123.497671 55.402,125.462671 L52.862,132.443671 L51.453,132.443671 L49.127,125.590671 C48.443,123.562671 47.867,121.704671 47.461,119.997671 L47.419,119.997671 C47.376,121.790671 47.269,124.202671 47.14,126.359671 L46.756,132.528671 L44.985,132.528671 L45.988,118.140671 L48.357,118.140671 L50.812,125.099671 C51.41,126.870671 51.902,128.450671 52.264,129.945671 L52.328,129.945671 C52.691,128.493671 53.203,126.913671 53.843,125.099671 L56.406,118.140671 L58.775,118.140671 L59.671,132.528671 L57.857,132.528671 L57.494,126.209671" id="Fill-407" fill="#1A1919"></path>
                <polyline id="Fill-408" fill="#1A1919" points="69.986 125.782671 64.393 125.782671 64.393 130.969671 70.627 130.969671 70.627 132.528671 62.537 132.528671 62.537 118.140671 70.306 118.140671 70.306 119.699671 64.393 119.699671 64.393 124.245671 69.986 124.245671 69.986 125.782671"></polyline>
            </g>
            <g id="Group" transform="translate(770.145000, 183.150189)"></g>
        </g>
    </g>
</svg>