<?xml version="1.0" encoding="UTF-8"?>
<svg width="280px" height="97px" viewBox="0 0 280 97" version="1.1" xmlns="http://www.w3.org/2000/svg" xmlns:xlink="http://www.w3.org/1999/xlink">
    <title>Combined Shape</title>
    <g id="Symbols" stroke="none" stroke-width="1" fill="none" fill-rule="evenodd">
        <g id="Shhh-Motif-in-yellow" transform="translate(-10.000000, -7.000000)" fill="#FBCA3A">
            <path d="M110.952,62.552 C118.726,62.552 123.74,58.274 123.74,52.202 C123.74,41.53 109.986,42.542 109.986,38.402 C109.986,36.976 111.366,35.688 114.034,35.688 C116.61,35.688 118.174,37.344 118.45,39.322 L124.844,37.298 C124.338,33.526 121.532,29.248 114.494,29.248 C107.18,29.248 102.902,33.388 102.902,38.77 C102.902,49.488 116.334,47.602 116.334,52.892 C116.334,54.732 114.402,55.79 111.964,55.79 C108.56,55.79 107.088,53.72 106.168,50.776 L99.7279999,53.122 C101.154,58.504 104.742,62.552 110.952,62.552 Z M131.724,62 L134.116,48.706 C134.622,45.578 136.922,44.198 138.624,44.198 C140.418,44.198 141.292,45.256 141.292,47.096 C141.292,47.832 141.154,48.798 141.062,49.35 L138.808,62 L145.386,62 L147.824,48.43 C147.962,47.556 148.146,46.314 148.146,45.486 C148.146,41.53 145.892,37.942 141.2,37.942 C138.762,37.942 136.646,39.23 135.496,40.794 L137.658,28.788 L130.62,30.904 L125.192,62 L131.724,62 Z M156.176,62 L158.568,48.706 C159.074,45.578 161.374,44.198 163.076,44.198 C164.87,44.198 165.744,45.256 165.744,47.096 C165.744,47.832 165.606,48.798 165.514,49.35 L163.26,62 L169.838,62 L172.276,48.43 C172.414,47.556 172.598,46.314 172.598,45.486 C172.598,41.53 170.344,37.942 165.652,37.942 C163.214,37.942 161.098,39.23 159.948,40.794 L162.11,28.788 L155.072,30.904 L149.644,62 L156.176,62 Z M180.628,62 L183.02,48.706 C183.526,45.578 185.826,44.198 187.528,44.198 C189.322,44.198 190.196,45.256 190.196,47.096 C190.196,47.832 190.058,48.798 189.966,49.35 L187.712,62 L194.29,62 L196.728,48.43 C196.866,47.556 197.05,46.314 197.05,45.486 C197.05,41.53 194.796,37.942 190.104,37.942 C187.666,37.942 185.55,39.23 184.4,40.794 L186.562,28.788 L179.524,30.904 L174.096,62 L180.628,62 Z M198.594,68.486 C202.412,66.278 206.184,62.046 206.184,58.044 C206.184,55.79 204.666,54.456 202.504,54.456 C200.342,54.456 198.18,56.296 198.18,59.102 C198.18,60.574 198.962,61.632 199.974,62.184 C199.1,63.334 197.122,65.45 196.202,66.186 L198.594,68.486 Z M254.5,7 C274.106109,7 290,22.8938914 290,42.5 C290,53.9204448 284.565037,64.4224183 275.596092,71.054831 L275.777945,71.2993017 L276.175101,71.8530155 L276.369498,72.1317684 L276.560814,72.4112659 L276.933322,72.9709371 L277.02418,73.1107118 L277.114074,73.2503318 L277.463472,73.806292 L277.795263,74.3558833 L277.875252,74.4919209 L277.954004,74.627317 L278.25608,75.1615129 L278.536143,75.6815505 C278.894104,76.3641101 279.18867,77.0006053 279.401054,77.5578003 C279.720717,78.3964487 279.649589,79.2919989 279.310276,80.2328934 L279.219931,80.469055 L279.209,80.493 L279.301372,80.4830259 C281.630302,80.2591482 283.560408,80.8792721 284.62493,82.7077031 L284.739624,82.915853 L284.847052,83.134059 C286.232462,86.1155509 285.795517,88.7482645 283.481904,90.577776 L283.376098,90.6542037 L283.264048,90.721144 L261.135069,102.666746 C259.424408,103.564594 257.620673,104.017599 255.743416,104.017599 C252.013092,104.017599 244.5,99.4829495 244.5,95.9593935 C244.5,95.6632087 244.510351,95.3234994 244.530054,94.9475156 L244.546569,94.6588396 L244.602586,93.8820977 L244.678474,93.0352065 L244.772772,92.1287865 L244.799051,91.8941248 L244.826367,91.6565722 L244.945535,90.6807727 L245.010743,90.1798426 L245.079455,89.6719958 L245.226665,88.640862 L245.385702,87.597992 L245.555103,86.5540062 L245.733406,85.5195253 L245.779201,85.2636347 L245.825438,85.009168 L246.014351,84.0088578 L246.110865,83.5215599 L246.208508,83.0446037 L246.406447,82.1270264 C246.639014,81.0878777 246.876317,80.165711 247.107904,79.4364188 L247.165678,79.2554587 L247.222941,79.078108 L247.447629,78.403618 L247.502898,78.2434286 L247.557882,78.0864944 L247.775716,77.4901287 L247.821478,77.3725821 C231.237548,74.2180471 219,59.6482645 219,42.5 C219,22.8938914 234.893891,7 254.5,7 Z M266.20719,74.4519904 C265.94756,74.4519904 265.762926,74.4964188 265.621647,74.5791594 L265.54183,74.6333524 L265.434761,74.7170064 L249.241202,83.1989546 L249.173081,83.5189172 L249.105307,83.8454835 L248.917731,84.7919546 L248.825676,85.2795209 L248.735042,85.774721 L248.55883,86.7822633 L248.390687,87.8030617 L248.232205,88.8255967 L248.084974,89.8383486 L247.950585,90.829798 L247.888705,91.3139342 L247.830631,91.788425 L247.726702,92.7027102 L247.64039,93.5611339 C247.550587,94.5255625 247.5,95.3524214 247.5,95.9593935 C247.5,96.5066696 248.332271,97.3516816 249.494097,98.1953304 L249.702444,98.3441346 L250.113784,98.6247012 C250.300952,98.7487154 250.493507,98.8715748 250.689799,98.9922977 L250.986835,99.171657 L251.440195,99.4330769 L251.899208,99.6831452 L252.12953,99.803146 L252.3597,99.9193772 L252.817493,100.139288 C253.955125,100.666595 255.02831,101.017599 255.743416,101.017599 C257.014793,101.017599 258.234923,100.737774 259.406969,100.17817 L259.725428,100.018614 L281.711,88.15 L281.760005,88.1096442 C282.69705,87.2967105 282.893638,86.3058294 282.313382,84.8325724 L282.2252,84.6187928 L282.126425,84.398253 C281.742888,83.5728574 280.787474,83.2857638 279.209204,83.5152913 C278.687435,83.5911721 278.146561,83.7205822 277.612334,83.8865068 L277.213311,84.0175308 L276.899389,84.130258 L276.641778,84.2298104 L276.25305,84.3938317 C276.085095,84.4561586 275.919844,84.4868893 275.760637,84.4906962 C275.771842,84.5973801 275.776581,84.7020193 275.776581,84.8048264 C275.776581,87.5758725 275.168257,89.4570225 273.314551,90.6906383 C271.022515,92.2159578 267.758433,91.8348666 266.399666,89.4555314 L265.422234,87.7379089 L264.965287,86.9576811 L264.664397,86.4587757 C264.615627,86.3790643 264.567528,86.3010528 264.52007,86.2247118 L264.217069,85.7467506 C263.974066,85.371648 263.755328,85.0554884 263.564762,84.8053725 L263.426,84.63 L263.288371,84.6769928 L262.737245,84.8759052 L262.529622,84.9541771 C261.894252,85.1959567 261.154214,85.497091 260.399773,85.8207972 L259.493307,86.217725 L258.747724,86.5569152 L258.047647,86.8876422 C257.935315,86.9418053 257.825295,86.9954262 257.717796,87.0484101 L257.104708,87.3579111 C257.008123,87.4079678 256.914474,87.457198 256.823969,87.5055068 L256.562099,87.6475742 C256.43243,87.7191505 256.311974,87.7876472 256.201444,87.8525784 L255.900341,88.0361902 C255.855357,88.0648475 255.813034,88.0924921 255.773458,88.1190633 L255.608033,88.2358292 L255.551,88.28 C255.188554,88.8333585 254.500689,89.0893326 253.861009,88.8948109 L253.72481,88.8461753 C252.958739,88.530854 252.593335,87.6542128 252.908656,86.8881423 C253.112113,86.3938441 254.131597,85.663916 255.476472,84.8997772 L255.995095,84.612015 C256.083755,84.5639184 256.173446,84.5157866 256.264049,84.4676687 L256.81765,84.1795213 L257.387382,83.8940676 L257.967496,83.6136679 L258.552242,83.3406828 L259.13587,83.0774725 L259.712632,82.8263974 L260.276776,82.5898179 L260.822555,82.3700945 L261.344218,82.1695874 L261.836015,81.9906571 L262.292197,81.835664 C262.437683,81.7882514 262.576275,81.7452217 262.707014,81.7069684 L263.074717,81.6069307 C263.359908,81.5361624 263.590033,81.4977048 263.750118,81.4977048 C264.694931,81.4977048 265.306182,81.9981707 266.208559,83.3102237 L266.474843,83.7074488 L266.760207,84.1504544 L267.222693,84.8918921 L267.543182,85.4232563 L268.018621,86.2349783 L269.004797,87.9678182 C269.413493,88.6834844 270.691448,88.8326895 271.652492,88.1931279 C272.457988,87.6570811 272.776581,86.6718818 272.776581,84.8048264 C272.776581,84.6756654 272.732574,84.4858883 272.646339,84.240684 L272.546094,83.9771962 L272.418091,83.67791 L272.262725,83.3439785 L272.080392,82.9765548 L271.871486,82.5767921 L271.636402,82.1458433 L271.375536,81.6848615 L271.089281,81.195 L270.229427,79.7789773 L269.530321,78.6411294 L269.11667,77.9524611 L268.792835,77.3883475 L268.616576,77.0621886 C268.175902,76.2212246 267.610908,75.4994009 267.031524,74.9957518 C266.87807,74.8623563 266.73372,74.7540734 266.609779,74.6702784 L266.440589,74.5628739 C266.415413,74.5480081 266.391865,74.5346533 266.370123,74.5227997 L266.262751,74.4696147 C266.235125,74.4578392 266.216133,74.4519904 266.20719,74.4519904 Z M115.286554,78.311966 C117.642554,78.311966 119.314554,80.040966 119.314554,83.403966 C119.314554,86.595966 117.528554,88.476966 115.248554,88.476966 C114.412554,88.476966 113.785554,88.172966 113.386554,87.640966 L113.386554,87.640966 L113.386554,90.756966 L110.536554,92.029966 L110.536554,78.539966 L113.386554,78.539966 L113.386554,79.185966 C113.766554,78.653966 114.431554,78.311966 115.286554,78.311966 Z M206.689694,74.530966 L206.689694,88.248966 L203.839694,88.248966 L203.839694,87.431966 C203.497694,88.134966 202.832694,88.476966 201.901694,88.476966 C199.488694,88.476966 197.911694,86.747966 197.911694,83.384966 C197.911694,80.287966 199.659694,78.311966 201.939694,78.311966 C202.832694,78.311966 203.440694,78.710966 203.839694,79.280966 L203.839694,79.280966 L203.839694,75.803966 L206.689694,74.530966 Z M192.34528,78.311966 C194.81528,78.311966 196.73428,79.793966 196.73428,82.909966 C196.73428,83.270966 196.75328,83.840966 196.65828,84.353966 L196.65828,84.353966 L190.48328,84.353966 C190.55928,85.626966 191.35728,86.063966 192.34528,86.063966 C193.33328,86.063966 193.92228,85.778966 194.54928,85.037966 L194.54928,85.037966 L196.18328,86.671966 C195.27128,87.773966 194.03628,88.476966 192.34528,88.476966 C189.45728,88.476966 187.70928,86.576966 187.70928,83.384966 C187.70928,80.287966 189.49528,78.311966 192.34528,78.311966 Z M182.636866,78.311966 C184.346866,78.311966 185.543866,79.071966 186.303866,79.945966 L186.303866,79.945966 L184.479866,81.446966 C183.719866,80.743966 183.206866,80.629966 182.636866,80.629966 C181.971866,80.629966 181.515866,80.819966 181.515866,81.218966 C181.515866,81.636966 182.427866,82.016966 183.415866,82.263966 C184.783866,82.700966 186.607866,83.365966 186.607866,85.436966 C186.607866,87.374966 185.068866,88.476966 182.693866,88.476966 C181.078866,88.476966 179.482866,87.735966 178.665866,86.595966 L178.665866,86.595966 L180.470866,85.075966 C180.869866,85.474966 181.819866,86.158966 182.788866,86.158966 C183.548866,86.158966 184.080866,85.949966 184.080866,85.436966 C184.080866,84.999966 183.643866,84.790966 182.484866,84.334966 C180.242866,83.593966 178.988866,82.871966 178.988866,81.085966 C178.988866,79.299966 180.660866,78.311966 182.636866,78.311966 Z M72.253898,74.720966 C76.186898,74.720966 77.269898,78.235966 77.269898,81.598966 C77.269898,85.018966 76.110898,88.476966 72.253898,88.476966 C68.320898,88.476966 67.237898,84.847966 67.237898,81.598966 C67.237898,78.140966 68.377898,74.720966 72.253898,74.720966 Z M84.337312,74.720966 C88.270312,74.720966 89.353312,78.235966 89.353312,81.598966 C89.353312,85.018966 88.194312,88.476966 84.337312,88.476966 C80.404312,88.476966 79.321312,84.847966 79.321312,81.598966 C79.321312,78.140966 80.461312,74.720966 84.337312,74.720966 Z M173.118452,78.311966 C174.942452,78.311966 177.298452,78.767966 177.298452,82.130966 L177.298452,82.130966 L177.298452,88.248966 L174.467452,88.248966 L174.467452,87.545966 C173.992452,88.058966 173.327452,88.476966 172.073452,88.476966 C170.021452,88.476966 168.406452,87.412966 168.406452,85.284966 C168.406452,83.175966 170.439452,82.187966 172.358452,82.187966 C173.327452,82.187966 173.916452,82.263966 174.467452,82.510966 L174.467452,82.510966 L174.467452,81.978966 C174.467452,81.123966 173.840452,80.686966 172.947452,80.686966 C171.864452,80.686966 170.838452,81.028966 169.774452,81.731966 L169.774452,81.731966 L168.900452,79.546966 C169.926452,78.862966 171.389452,78.311966 173.118452,78.311966 Z M51.215656,78.311966 C53.685656,78.311966 55.604656,79.793966 55.604656,82.909966 C55.604656,83.270966 55.623656,83.840966 55.528656,84.353966 L55.528656,84.353966 L49.353656,84.353966 C49.429656,85.626966 50.227656,86.063966 51.215656,86.063966 C52.203656,86.063966 52.792656,85.778966 53.419656,85.037966 L53.419656,85.037966 L55.053656,86.671966 C54.141656,87.773966 52.906656,88.476966 51.215656,88.476966 C48.327656,88.476966 46.579656,86.576966 46.579656,83.384966 C46.579656,80.287966 48.365656,78.311966 51.215656,78.311966 Z M104.020726,74.720966 L94.976726,88.476966 L92.031726,88.476966 L101.075726,74.720966 L104.020726,74.720966 Z M101.816726,81.370966 C104.229726,81.370966 105.141726,83.270966 105.141726,84.923966 C105.141726,86.519966 104.286726,88.476966 101.816726,88.476966 C99.384726,88.476966 98.510726,86.595966 98.510726,84.923966 C98.510726,83.403966 99.384726,81.370966 101.816726,81.370966 Z M161.301038,74.530966 L161.301038,79.242966 C161.681038,78.691966 162.289038,78.311966 163.201038,78.311966 C165.462038,78.311966 167.229038,80.287966 167.229038,83.384966 C167.229038,86.671966 165.576038,88.476966 163.030038,88.476966 C162.232038,88.476966 161.700038,88.229966 161.301038,87.507966 L161.301038,87.507966 L161.301038,88.248966 L158.451038,88.248966 L158.451038,75.803966 L161.301038,74.530966 Z M130.466382,78.311966 C132.290382,78.311966 134.646382,78.767966 134.646382,82.130966 L134.646382,82.130966 L134.646382,88.248966 L131.815382,88.248966 L131.815382,87.545966 C131.340382,88.058966 130.675382,88.476966 129.421382,88.476966 C127.369382,88.476966 125.754382,87.412966 125.754382,85.284966 C125.754382,83.175966 127.787382,82.187966 129.706382,82.187966 C130.675382,82.187966 131.264382,82.263966 131.815382,82.510966 L131.815382,82.510966 L131.815382,81.978966 C131.815382,81.123966 131.188382,80.686966 130.295382,80.686966 C129.212382,80.686966 128.186382,81.028966 127.122382,81.731966 L127.122382,81.731966 L126.248382,79.546966 C127.274382,78.862966 128.737382,78.311966 130.466382,78.311966 Z M150.94721,74.530966 L150.94721,78.539966 L153.01821,78.539966 L153.01821,81.047966 L150.94721,81.047966 L150.94721,85.550966 C150.94721,85.892966 151.23221,86.044966 151.44121,86.044966 C151.97321,86.044966 152.54321,85.930966 153.15121,85.664966 L153.15121,85.664966 L152.82821,88.039966 C152.20121,88.343966 151.46021,88.476966 150.60521,88.476966 C148.83821,88.476966 148.11621,87.526966 148.11621,85.797966 L148.11621,85.797966 L148.11621,81.047966 L146.80521,81.047966 L146.80521,78.539966 L148.11621,78.539966 L148.11621,75.879966 L150.94721,74.530966 Z M29.215414,78.311966 C31.685414,78.311966 33.604414,79.793966 33.604414,82.909966 C33.604414,83.270966 33.623414,83.840966 33.528414,84.353966 L33.528414,84.353966 L27.353414,84.353966 C27.429414,85.626966 28.227414,86.063966 29.215414,86.063966 C30.203414,86.063966 30.792414,85.778966 31.419414,85.037966 L31.419414,85.037966 L33.053414,86.671966 C32.141414,87.773966 30.906414,88.476966 29.215414,88.476966 C26.327414,88.476966 24.579414,86.576966 24.579414,83.384966 C24.579414,80.287966 26.365414,78.311966 29.215414,78.311966 Z M142.188796,78.311966 C143.594796,78.311966 145.532796,79.071966 145.532796,81.883966 L145.532796,81.883966 L145.532796,88.248966 L142.682796,88.248966 L142.682796,83.289966 C142.682796,81.750966 142.340796,81.066966 141.181796,81.066966 C139.965796,81.066966 139.528796,81.807966 139.528796,83.251966 L139.528796,83.251966 L139.528796,88.248966 L136.678796,88.248966 L136.678796,78.539966 L139.528796,78.539966 L139.528796,79.432966 C140.117796,78.729966 140.991796,78.311966 142.188796,78.311966 Z M13.199,74.948966 L14.548,81.902966 C14.605,82.092966 14.586,82.263966 14.624,82.472966 L14.624,82.469 L14.6438906,82.3218566 C14.6527969,82.2238879 14.6557656,82.1294816 14.6694219,82.0267629 L14.7,81.864966 L16.334,74.948966 L18.975,74.948966 L20.628,81.883966 C20.666,82.111966 20.666,82.301966 20.704,82.510966 L20.704,82.510966 L20.799,81.921966 L22.148,74.948966 L25.245,74.948966 L22.376,88.248966 L19.526,88.248966 L17.721,81.009966 L17.626,80.345 L17.6107668,80.472482 C17.5869475,80.679654 17.5700525,80.8563596 17.5462332,80.947205 L17.531,80.990966 L15.802,88.248966 L12.952,88.248966 L10.102,74.948966 L13.199,74.948966 Z M65.084484,74.948966 L65.084484,88.248966 L62.082484,88.248966 L62.082484,78.767966 L60.163484,78.767966 L60.163484,76.297966 C61.417484,76.297966 62.291484,75.974966 62.633484,74.948966 L62.633484,74.948966 L65.084484,74.948966 Z M44.034242,78.311966 C44.984242,78.311966 45.630242,78.653966 46.276242,79.166966 L46.276242,79.166966 L45.896242,81.750966 C45.364242,81.370966 44.756242,81.104966 43.958242,81.104966 C43.103242,81.104966 42.514242,81.427966 42.514242,82.852966 L42.514242,82.852966 L42.514242,88.248966 L39.664242,88.248966 L39.664242,78.539966 L42.514242,78.539966 L42.514242,79.147966 C42.666242,78.824966 43.065242,78.311966 44.034242,78.311966 Z M124.006968,74.530966 L124.006968,88.248966 L121.156968,88.248966 L121.156968,75.860966 L124.006968,74.530966 Z M172.852452,84.448966 C171.940452,84.448966 171.199452,84.657966 171.199452,85.322966 C171.199452,85.797966 171.712452,86.101966 172.624452,86.101966 C173.441452,86.101966 174.011452,85.778966 174.467452,85.455966 L174.467452,85.455966 L174.467452,84.657966 C173.954452,84.505966 173.441452,84.448966 172.852452,84.448966 Z M130.200382,84.448966 C129.288382,84.448966 128.547382,84.657966 128.547382,85.322966 C128.547382,85.797966 129.060382,86.101966 129.972382,86.101966 C130.789382,86.101966 131.359382,85.778966 131.815382,85.455966 L131.815382,85.455966 L131.815382,84.657966 C131.302382,84.505966 130.789382,84.448966 130.200382,84.448966 Z M101.816726,83.821966 C101.284726,83.821966 101.037726,84.372966 101.037726,84.923966 C101.037726,85.569966 101.265726,86.025966 101.816726,86.025966 C102.367726,86.025966 102.614726,85.493966 102.614726,84.923966 C102.614726,84.277966 102.348726,83.821966 101.816726,83.821966 Z M162.707038,81.066966 C161.966038,81.066966 161.529038,81.351966 161.301038,81.636966 L161.301038,81.636966 L161.301038,85.170966 C161.605038,85.550966 161.947038,85.721966 162.707038,85.721966 C163.809038,85.721966 164.379038,84.828966 164.379038,83.384966 C164.379038,81.883966 163.771038,81.066966 162.707038,81.066966 Z M114.792554,81.066966 C114.051554,81.066966 113.690554,81.294966 113.386554,81.598966 L113.386554,81.598966 L113.386554,85.151966 C113.481554,85.417966 113.994554,85.721966 114.792554,85.721966 C115.856554,85.721966 116.464554,84.866966 116.464554,83.403966 C116.464554,81.959966 115.932554,81.066966 114.792554,81.066966 Z M202.395694,81.066966 C201.350694,81.066966 200.761694,81.883966 200.761694,83.384966 C200.761694,84.904966 201.255694,85.721966 202.395694,85.721966 C203.174694,85.721966 203.535694,85.550966 203.839694,85.170966 L203.839694,85.170966 L203.839694,81.674966 C203.611694,81.408966 203.136694,81.066966 202.395694,81.066966 Z M72.253898,77.551966 C70.733898,77.551966 70.182898,79.451966 70.182898,81.598966 C70.182898,83.631966 70.676898,85.645966 72.253898,85.645966 C73.773898,85.645966 74.305898,83.745966 74.305898,81.598966 C74.305898,79.565966 73.811898,77.551966 72.253898,77.551966 Z M84.337312,77.551966 C82.817312,77.551966 82.266312,79.451966 82.266312,81.598966 C82.266312,83.631966 82.760312,85.645966 84.337312,85.645966 C85.857312,85.645966 86.389312,83.745966 86.389312,81.598966 C86.389312,79.565966 85.895312,77.551966 84.337312,77.551966 Z M29.082414,80.724966 C28.151414,80.724966 27.524414,81.294966 27.391414,82.225966 L27.391414,82.225966 L30.887414,82.225966 C30.754414,81.294966 30.241414,80.724966 29.082414,80.724966 Z M192.21228,80.724966 C191.28128,80.724966 190.65428,81.294966 190.52128,82.225966 L190.52128,82.225966 L194.01728,82.225966 C193.88428,81.294966 193.37128,80.724966 192.21228,80.724966 Z M51.082656,80.724966 C50.151656,80.724966 49.524656,81.294966 49.391656,82.225966 L49.391656,82.225966 L52.887656,82.225966 C52.754656,81.294966 52.241656,80.724966 51.082656,80.724966 Z M94.235726,74.720966 C96.648726,74.720966 97.541726,76.639966 97.541726,78.273966 C97.541726,79.793966 96.705726,81.807966 94.235726,81.807966 C91.822726,81.807966 90.910726,79.888966 90.910726,78.273966 C90.910726,76.753966 91.803726,74.720966 94.235726,74.720966 Z M269.140915,68.5920537 C269.051275,68.5920537 268.940796,68.6024696 268.811378,68.6224876 L268.675716,68.6456762 L268.368203,68.7105345 L268.197195,68.7518426 L268.015248,68.7988288 L267.620228,68.9091127 L267.186519,69.0399396 L266.717496,69.189863 L266.216537,69.3574365 L265.412602,69.6387262 L264.5558,69.9515918 L263.350852,70.4094261 L262.415004,70.7769835 L261.46427,71.1598435 L260.374106,71.6098734 L259.047229,72.1734021 L257.771329,72.7328563 L257.162497,73.0067703 L256.296898,73.4055541 L255.757432,73.6608522 L255.014635,74.0236775 L254.569538,74.2496469 L254.169191,74.4608852 L253.817593,74.6556783 L253.518745,74.8323122 L253.390353,74.9132838 L253.066995,75.1279428 L252.9906,75.1805845 L252.915894,75.2329644 L252.633087,75.441339 C252.271662,75.7197609 251.973159,76.0027461 251.707359,76.3408671 C251.648681,76.7603762 251.415223,77.122861 251.083684,77.3547258 C250.992078,77.5360266 250.902149,77.7337827 250.811637,77.9499475 L250.720847,78.1723207 L250.544368,78.6337926 L250.361813,79.1464841 L250.328,79.243 L263.828,72.171 L263.890019,72.1266971 C264.486831,71.719491 265.183239,71.4987435 265.949298,71.4586661 L266.20719,71.4519904 C267.872546,71.4519904 269.867539,73.1362875 271.140296,75.4225386 L271.344959,75.803137 L271.510954,76.1012873 L271.828253,76.6431659 L272.200691,77.257257 L273.369085,79.1628906 L273.66971,79.6648396 L274.021732,80.2666027 L274.341333,80.8314118 C274.391902,80.9225982 274.441125,81.012343 274.489002,81.1006955 L274.760128,81.6144947 L274.83,81.754 L274.971244,81.5954535 C275.136052,81.4009639 275.300978,81.1950705 275.4603,80.9822143 L275.694367,80.6582629 C276.022494,80.1870252 276.279776,79.7377997 276.438372,79.3452532 C276.596674,78.9534364 276.625867,78.6999713 276.597789,78.6263071 C276.571932,78.5584708 276.539129,78.4805489 276.499923,78.3935259 L276.43638,78.2562885 L276.282115,77.9438124 L276.09433,77.5855902 L275.876289,77.1875291 L275.631255,76.7555362 L275.362493,76.2955186 L275.073265,75.8133835 L274.608191,75.061632 L274.527689,74.934194 L274.446469,74.8063888 L274.115428,74.2933436 L273.776976,73.7818092 L273.434378,73.2776928 L273.262543,73.0302623 L273.090896,72.7869015 L272.911083,72.5363334 L272.732326,72.291776 L272.554868,72.0534035 L272.204819,71.5959105 L272.118497,71.4856752 L272.032713,71.3771385 L271.69555,70.9604149 L271.612905,70.8606987 L271.530979,70.7628119 L271.211071,70.3899946 L270.905091,70.048191 L270.831,69.9677494 L270.757931,69.889355 L270.476484,69.596686 L270.408981,69.5288547 L270.342682,69.4632015 L270.090134,69.222804 L269.859279,69.0189969 L269.652057,68.8531745 C269.424839,68.6824149 269.249835,68.5920537 269.140915,68.5920537 Z M36.510828,74.720966 C37.460828,74.720966 38.201828,75.423966 38.201828,76.620966 C38.201828,78.083966 36.966828,79.774966 35.693828,80.572966 L35.693828,80.572966 L34.420828,79.565966 C34.762828,79.261966 35.427828,78.425966 35.712828,77.988966 C35.142828,77.665966 34.762828,77.190966 34.762828,76.392966 C34.762828,75.385966 35.598828,74.720966 36.510828,74.720966 Z M94.235726,77.171966 C93.684726,77.171966 93.437726,77.703966 93.437726,78.273966 C93.437726,78.919966 93.703726,79.356966 94.235726,79.356966 C94.767726,79.356966 95.014726,78.843966 95.014726,78.273966 C95.014726,77.608966 94.748726,77.171966 94.235726,77.171966 Z M254.5,10 C236.550746,10 222,24.5507456 222,42.5 C222,58.3161857 233.372865,71.7379553 248.724417,74.4886447 L248.725035,64.6239134 C243.126835,63.0105083 238.356058,59.4632954 241.502644,56.5 C245.633421,52.6098427 250.912564,47.7133659 254.249762,47.5067662 L254.46462,47.5 L254.466908,47.5 L254.466579,48.5145639 C254.477462,48.5139614 254.488358,48.5133775 254.499267,48.5128123 L254.5,47.5 L254.502288,47.5 C257.824274,47.5 263.243688,52.525274 267.464265,56.5 C270.495591,59.3547499 266.178958,62.7514228 260.853381,64.4389559 L260.854,68.169 L261.857603,67.775899 L262.869933,67.3911815 L263.530131,67.1476643 L264.489922,66.8055538 L265.402936,66.4957099 L265.979977,66.3095554 L266.527753,66.141465 L267.042877,65.9929283 L267.521958,65.8654345 L267.961607,65.7604731 C268.450211,65.6517412 268.851388,65.5920537 269.140915,65.5920537 C270.215165,65.5920537 271.612429,66.5764467 273.039144,68.0259279 L273.253335,68.2467734 L273.682162,68.7078353 L273.699206,68.7260165 C281.980064,62.6571049 287,53.004781 287,42.5 C287,24.5507456 272.449254,10 254.5,10 Z M254.78369,50.4442393 C253.150399,50.4442393 251.815311,51.7209957 251.722031,53.3309029 L251.716825,53.5111045 L251.716825,69.596839 L251.724,69.591 L251.725,72.417 L251.760064,72.3949195 L252.073743,72.2006457 L252.160825,72.1491637 L252.25125,72.0965699 L252.645162,71.8756106 L253.087692,71.6390016 L253.574941,71.3884553 L254.103013,71.1256842 L254.96314,70.7123521 L255.576219,70.4265111 L256.545588,69.9866012 L257.562964,69.5384507 L257.854,69.412 L257.854652,65.1821443 L257.85,65.183 L257.850555,53.5111045 C257.850555,51.8778139 256.573799,50.5427257 254.963892,50.4494455 L254.78369,50.4442393 Z M268.5,30.5 C271.813708,30.5 274.5,33.1862915 274.5,36.5 C274.5,39.8137085 271.813708,42.5 268.5,42.5 C265.186292,42.5 262.5,39.8137085 262.5,36.5 C262.5,33.1862915 265.186292,30.5 268.5,30.5 Z M241.5,30.5 C244.813708,30.5 247.5,33.1862915 247.5,36.5 C247.5,39.8137085 244.813708,42.5 241.5,42.5 C238.186292,42.5 235.5,39.8137085 235.5,36.5 C235.5,33.1862915 238.186292,30.5 241.5,30.5 Z" id="Combined-Shape"></path>
        </g>
    </g>
</svg>