<?xml version="1.0" encoding="UTF-8"?>
<svg width="159px" height="188px" viewBox="0 0 159 188" version="1.1" xmlns="http://www.w3.org/2000/svg" xmlns:xlink="http://www.w3.org/1999/xlink">
    <title>soya@2x</title>
    <g id="Page-1" stroke="none" stroke-width="1" fill="none" fill-rule="evenodd">
        <g id="Allergens" transform="translate(-939.000000, -669.000000)">
            <g id="soya" transform="translate(984.589000, 687.450000)">
                <path d="M51.4573496,8.429 L52.2953496,0.189 L48.1923496,5.68434189e-14 L48.2723496,8.175 C40.5533496,8.603 34.1293496,16.525 33.6703496,26.531 C33.5683496,28.765 33.7743496,30.921 34.2363496,32.941 C29.6253496,34.97 25.5183496,39.384 23.3873496,45.267 C22.2933496,48.291 21.8523496,51.349 21.9833496,54.224 C19.0433496,54.841 16.0673496,56.123 13.3223496,58.083 C6.73334956,62.789 3.40634956,70.029 4.39934956,76.177 C4.47934956,78.033 4.32634956,81.091 2.60034956,82.417 C0.119349558,84.322 -0.247650442,85.376 0.123349558,85.9 C0.123349558,85.9 0.123349558,85.9 0.123349558,85.902 C0.125349558,85.902 0.125349558,85.902 0.125349558,85.902 C0.500349558,86.423 1.61534956,86.417 4.22134956,84.689 C6.07834956,83.453 9.12734956,84.376 10.8383496,85.06 C16.3263496,87.9 24.1703496,87.072 30.6993496,82.408 C35.9553496,78.652 39.1353496,73.285 39.7033496,68.144 C44.6923496,66.33 49.2213496,61.722 51.4963496,55.443 C52.7333496,52.031 53.1393496,48.57 52.8263496,45.382 C58.7073496,43.005 63.1523496,36.164 63.5333496,27.902 C63.9773496,18.238 58.7053496,10.003 51.4573496,8.429" id="Fill-326" fill="#2B2D2F"></path>
                <path d="M25.9693496,79.343 C20.4043496,83.32 13.3673496,83.007 10.2523496,78.646 C7.13734956,74.285 9.12334956,67.527 14.6883496,63.55 C20.2523496,59.576 27.2893496,59.888 30.4043496,64.25 C33.5183496,68.609 31.5333496,75.369 25.9693496,79.343" id="Fill-327" fill="#FFFFFE"></path>
                <path d="M11.8813496,76.132 C12.0063496,76.136 12.0883496,75.792 12.1173496,75.71 C12.2173496,75.431 12.3093496,75.148 12.4123496,74.869 C12.6493496,74.242 12.9303496,73.626 13.2523496,73.039 C13.9433496,71.783 14.8133496,70.625 15.8093496,69.597 C16.8053496,68.57 17.9403496,67.65 19.2053496,66.98 C20.4203496,66.337 21.8223496,65.88 23.2093496,66.089 C23.7563496,66.171 24.2483496,66.431 24.7913496,66.521 C25.3423496,66.603 26.0593496,66.537 26.4123496,66.048 C26.8013496,65.509 26.4693496,64.8 26.0493496,64.392 C25.6863496,64.041 25.2363496,63.845 24.7583496,63.706 C21.9813496,62.908 19.1093496,64.105 16.9593496,65.849 C15.2763496,67.212 13.8753496,68.96 12.8973496,70.894 C12.4163496,71.841 12.0293496,72.849 11.8243496,73.892 C11.7383496,74.328 11.6803496,74.773 11.6823496,75.214 C11.6823496,75.331 11.6683496,76.126 11.8813496,76.132 C11.9773496,76.134 11.7913496,76.128 11.8813496,76.132" id="Fill-328" fill="#2B2D2F"></path>
                <path d="M46.5083496,53.818 C44.1803496,60.25 38.2053496,63.982 33.1663496,62.158 C28.1273496,60.333 25.9303496,53.642 28.2603496,47.21 C30.5883496,40.781 36.5613496,37.046 41.6003496,38.873 C46.6393496,40.697 48.8383496,47.388 46.5083496,53.818" id="Fill-329" fill="#FFFFFE"></path>
                <path d="M31.1393496,57.365 C31.2583496,57.322 31.2073496,56.97 31.2033496,56.886 C31.1923496,56.589 31.1703496,56.291 31.1623496,55.996 C31.1473496,55.322 31.1783496,54.648 31.2603496,53.984 C31.4343496,52.56 31.8093496,51.162 32.3503496,49.835 C32.8793496,48.539 33.5723496,47.294 34.4673496,46.212 C35.3323496,45.173 36.4303496,44.222 37.7603496,43.861 C38.2993496,43.714 38.8363496,43.763 39.3773496,43.667 C39.9323496,43.568 40.5943496,43.283 40.8223496,42.724 C41.0903496,42.072 40.5413496,41.464 39.9773496,41.218 C39.4983496,41.009 39.0003496,40.984 38.4883496,41.033 C35.6503496,41.306 33.4433496,43.429 32.0883496,45.806 C30.9923496,47.728 30.3223496,49.921 30.1313496,52.125 C30.0393496,53.183 30.0533496,54.261 30.2523496,55.306 C30.3363496,55.744 30.4473496,56.177 30.6133496,56.587 C30.6583496,56.697 30.9403496,57.437 31.1393496,57.365 C31.2313496,57.331 31.0553496,57.394 31.1393496,57.365" id="Fill-330" fill="#2B2D2F"></path>
                <path d="M57.7173496,29.946 C55.3073496,36.346 49.2873496,40.006 44.2723496,38.118 C39.2563496,36.231 37.1413496,29.51 39.5513496,23.11 C41.9613496,16.709 47.9813496,13.052 52.9963496,14.938 C58.0123496,16.827 60.1253496,23.547 57.7173496,29.946" id="Fill-331" fill="#FFFFFE"></path>
                <path d="M42.3033496,33.298 C42.4223496,33.257 42.3753496,32.905 42.3753496,32.821 C42.3653496,32.532 42.3483496,32.244 42.3443496,31.954 C42.3363496,31.299 42.3733496,30.645 42.4553496,29.997 C42.6413496,28.56 43.0353496,27.149 43.5983496,25.813 C44.1563496,24.489 44.8853496,23.211 45.8283496,22.123 C46.7133496,21.104 47.8323496,20.183 49.1703496,19.86 C49.7093496,19.732 50.2543496,19.793 50.7933496,19.692 C51.3613496,19.582 52.0653496,19.256 52.2193496,18.641 C52.3773496,17.998 51.8173496,17.465 51.2793496,17.237 C50.7853496,17.03 50.2643496,17.018 49.7403496,17.072 C46.8773496,17.368 44.6603496,19.527 43.2973496,21.926 C42.2133496,23.838 41.5373496,26.016 41.3463496,28.208 C41.2583496,29.212 41.2683496,30.237 41.4433496,31.23 C41.5203496,31.667 41.6253496,32.103 41.7893496,32.516 C41.8303496,32.623 42.1043496,33.372 42.3033496,33.298 C42.3973496,33.267 42.2193496,33.329 42.3033496,33.298" id="Fill-332" fill="#2B2D2F"></path>
                <path d="M9.84034956,137.139 C10.6733496,137.651 11.8903496,138.078 13.1703496,138.078 C15.0703496,138.078 16.1803496,137.074 16.1803496,135.623 C16.1803496,134.278 15.4123496,133.51 13.4693496,132.763 C11.1213496,131.93 9.67034956,130.713 9.67034956,128.685 C9.67034956,126.443 11.5273496,124.778 14.3233496,124.778 C15.7973496,124.778 16.8633496,125.12 17.5043496,125.483 L16.9923496,126.999 C16.5223496,126.742 15.5623496,126.315 14.2603496,126.315 C12.2953496,126.315 11.5493496,127.489 11.5493496,128.472 C11.5493496,129.816 12.4243496,130.479 14.4083496,131.247 C16.8423496,132.187 18.0803496,133.36 18.0803496,135.474 C18.0803496,137.693 16.4373496,139.636 13.0433496,139.636 C11.6543496,139.636 10.1393496,139.209 9.37134956,138.697 L9.84034956,137.139" id="Fill-515" fill="#2B2D2F"></path>
                <path d="M32.9193496,132.058 C32.9193496,137.011 29.9083496,139.636 26.2373496,139.636 C22.4383496,139.636 19.7703496,136.69 19.7703496,132.336 C19.7703496,127.768 22.6083496,124.778 26.4513496,124.778 C30.3793496,124.778 32.9193496,127.788 32.9193496,132.058 Z M21.7543496,132.293 C21.7543496,135.367 23.4203496,138.12 26.3443496,138.12 C29.2893496,138.12 30.9553496,135.409 30.9553496,132.144 C30.9553496,129.283 29.4613496,126.294 26.3653496,126.294 C23.2913496,126.294 21.7543496,129.134 21.7543496,132.293 L21.7543496,132.293 Z" id="Fill-516" fill="#2B2D2F"></path>
                <path d="M37.9393496,139.401 L37.9393496,133.296 L33.3923496,125.014 L35.5063496,125.014 L37.5333496,128.984 C38.0883496,130.072 38.5163496,130.948 38.9633496,131.951 L39.0063496,131.951 C39.4123496,131.012 39.9023496,130.072 40.4573496,128.984 L42.5283496,125.014 L44.6423496,125.014 L39.8173496,133.274 L39.8173496,139.401 L37.9393496,139.401" id="Fill-517" fill="#2B2D2F"></path>
                <path d="M46.8853496,134.876 L45.3913496,139.401 L43.4693496,139.401 L48.3583496,125.014 L50.6003496,125.014 L55.5093496,139.401 L53.5243496,139.401 L51.9863496,134.876 L46.8853496,134.876 Z M51.6033496,133.424 L50.1933496,129.283 C49.8733496,128.344 49.6603496,127.489 49.4463496,126.657 L49.4043496,126.657 C49.1913496,127.511 48.9553496,128.387 48.6783496,129.262 L47.2703496,133.424 L51.6033496,133.424 L51.6033496,133.424 Z" id="Fill-518" fill="#2B2D2F"></path>
            </g>
            <g id="Group" transform="translate(770.145000, 183.150189)"></g>
        </g>
    </g>
</svg>